<svg width="36" height="36" viewBox="0 0 36 36" fill="none" xmlns="http://www.w3.org/2000/svg">
<path d="M28.4364 6.41602H7.5671C6.50608 6.4179 5.48905 6.84022 4.7388 7.59048C3.98854 8.34074 3.56622 9.35777 3.56433 10.4188V22.3772C3.56527 23.4376 3.98692 24.4542 4.73671 25.204C5.48651 25.9538 6.50317 26.3755 7.56354 26.3764H9.62374V32.4643C9.62372 32.5684 9.65407 32.6701 9.71104 32.7572C9.76802 32.8442 9.84915 32.9128 9.9445 32.9544C10.0398 32.996 10.1453 33.0089 10.2478 32.9915C10.3504 32.9741 10.4457 32.9272 10.522 32.8564L17.4867 26.3764H28.4328C29.4939 26.3745 30.5109 25.9522 31.2612 25.2019C32.0114 24.4517 32.4337 23.4347 32.4356 22.3736V10.4152C32.4347 9.35486 32.013 8.33819 31.2632 7.5884C30.5134 6.83861 29.4968 6.41696 28.4364 6.41602ZM31.3663 22.3736C31.3654 23.1514 31.056 23.8969 30.5061 24.4469C29.9562 24.9968 29.2106 25.3062 28.4328 25.3071H17.2764C17.144 25.3089 17.017 25.3597 16.92 25.4497L10.693 31.2382V25.8418C10.693 25.7 10.6367 25.564 10.5364 25.4637C10.4362 25.3634 10.3002 25.3071 10.1584 25.3071H7.56354C6.78677 25.3062 6.04209 24.9972 5.49283 24.4479C4.94357 23.8987 4.63458 23.154 4.63364 22.3772V10.4188C4.63458 9.64107 4.94394 8.89548 5.49387 8.34556C6.0438 7.79563 6.78939 7.48627 7.5671 7.48532H28.4364C29.2132 7.48627 29.9579 7.79525 30.5071 8.34451C31.0564 8.89377 31.3654 9.63845 31.3663 10.4152V22.3736Z" fill="black"/>
<path d="M10.7501 17.4082C10.4251 17.4082 10.1074 17.5046 9.83721 17.6851C9.56699 17.8657 9.35638 18.1223 9.23201 18.4226C9.10765 18.7228 9.07511 19.0532 9.13851 19.3719C9.20191 19.6907 9.35841 19.9835 9.58821 20.2133C9.81801 20.4431 10.1108 20.5996 10.4295 20.663C10.7483 20.7264 11.0787 20.6938 11.3789 20.5695C11.6792 20.4451 11.9358 20.2345 12.1163 19.9643C12.2969 19.694 12.3933 19.3764 12.3933 19.0514C12.3923 18.6159 12.2189 18.1985 11.911 17.8905C11.603 17.5826 11.1856 17.4091 10.7501 17.4082ZM10.7501 19.6288C10.6368 19.6288 10.5259 19.5952 10.4317 19.5323C10.3374 19.4694 10.2638 19.38 10.2203 19.2754C10.1767 19.1707 10.1652 19.0555 10.187 18.9443C10.2089 18.8331 10.2632 18.7308 10.3431 18.6504C10.423 18.57 10.5249 18.5151 10.636 18.4925C10.7471 18.47 10.8623 18.4809 10.9673 18.5237C11.0722 18.5666 11.162 18.6396 11.2255 18.7335C11.289 18.8274 11.3233 18.938 11.324 19.0514C11.324 19.2036 11.2635 19.3495 11.1559 19.4572C11.0483 19.5648 10.9023 19.6252 10.7501 19.6252V19.6288Z" fill="black"/>
<path d="M15.4372 17.4082C15.1122 17.4082 14.7946 17.5046 14.5243 17.6851C14.2541 17.8657 14.0435 18.1223 13.9191 18.4226C13.7948 18.7228 13.7622 19.0532 13.8256 19.3719C13.889 19.6907 14.0455 19.9835 14.2753 20.2133C14.5051 20.4431 14.7979 20.5996 15.1167 20.663C15.4354 20.7264 15.7658 20.6938 16.0661 20.5695C16.3663 20.4451 16.6229 20.2345 16.8035 19.9643C16.984 19.694 17.0804 19.3764 17.0804 19.0514C17.0795 18.6159 16.906 18.1985 16.5981 17.8905C16.2901 17.5826 15.8727 17.4091 15.4372 17.4082ZM15.4372 19.6288C15.3239 19.6288 15.2131 19.5952 15.1188 19.5323C15.0245 19.4694 14.9509 19.38 14.9074 19.2754C14.8639 19.1707 14.8523 19.0555 14.8742 18.9443C14.896 18.8331 14.9503 18.7308 15.0302 18.6504C15.1101 18.57 15.212 18.5151 15.3231 18.4925C15.4342 18.47 15.5495 18.4809 15.6544 18.5237C15.7593 18.5666 15.8492 18.6396 15.9127 18.7335C15.9761 18.8274 16.0104 18.938 16.0111 19.0514C16.0111 19.2036 15.9506 19.3495 15.843 19.4572C15.7354 19.5648 15.5894 19.6252 15.4372 19.6252V19.6288Z" fill="black"/>
<path d="M20.4666 17.4439C20.0948 17.364 19.7069 17.4155 19.3688 17.5897C19.0308 17.7638 18.7636 18.0498 18.6128 18.3988C18.4621 18.7479 18.437 19.1385 18.542 19.504C18.6469 19.8694 18.8754 20.1872 19.1884 20.4031C19.5015 20.619 19.8797 20.7196 20.2586 20.6878C20.6375 20.6561 20.9937 20.4939 21.2664 20.2289C21.5391 19.9639 21.7115 19.6125 21.7541 19.2347C21.7968 18.8568 21.707 18.4759 21.5003 18.1568C21.2634 17.792 20.8918 17.5357 20.4666 17.4439ZM20.6804 19.1726C20.656 19.2834 20.5993 19.3844 20.5175 19.463C20.4357 19.5415 20.3324 19.5941 20.2207 19.614C20.1091 19.6339 19.994 19.6202 19.8901 19.5748C19.7862 19.5293 19.698 19.4541 19.6368 19.3586C19.5757 19.2631 19.5442 19.1516 19.5463 19.0382C19.5484 18.9247 19.5842 18.8145 19.6489 18.7214C19.7137 18.6283 19.8046 18.5564 19.9101 18.5149C20.0157 18.4734 20.1312 18.4642 20.242 18.4883C20.3897 18.5223 20.518 18.6133 20.5988 18.7415C20.6796 18.8698 20.7064 19.0247 20.6733 19.1726H20.6804Z" fill="black"/>
</svg>
