<svg width="36" height="36" viewBox="0 0 36 36" fill="none" xmlns="http://www.w3.org/2000/svg">
<path d="M11.2197 18.6693C14.6043 18.6693 17.3579 15.9156 17.3579 12.5309C17.3579 9.14625 14.6043 6.39258 11.2197 6.39258C7.83503 6.39258 5.08142 9.14625 5.08142 12.5309C5.08142 15.9156 7.83503 18.6693 11.2197 18.6693ZM11.2197 7.46879C14.0109 7.46879 16.2817 9.7396 16.2817 12.5309C16.2817 15.3223 14.0109 17.5931 11.2197 17.5931C8.42837 17.5931 6.15761 15.3223 6.15761 12.5309C6.15761 9.7396 8.42837 7.46879 11.2197 7.46879Z" fill="black"/>
<path d="M11.2186 16.2976C12.3619 16.2976 13.3634 15.5676 13.7114 14.4817C13.8018 14.1986 13.6461 13.8959 13.3631 13.8051C13.0804 13.7158 12.7773 13.8708 12.6865 14.1534C12.482 14.7923 11.8923 15.2218 11.2189 15.2218C10.5456 15.2218 9.95586 14.7923 9.75174 14.1531C9.66134 13.87 9.35821 13.7129 9.07553 13.8044C8.79249 13.8948 8.63609 14.1976 8.72685 14.4806C9.07338 15.5672 10.075 16.2976 11.2186 16.2976Z" fill="black"/>
<path d="M25.5545 16.9629C22.4281 16.9629 19.493 18.4972 17.7019 21.0672C17.6929 21.0801 17.6843 21.0934 17.6764 21.107L17.4626 21.4801C15.7425 20.273 13.6504 19.5616 11.3943 19.5616C5.55312 19.5616 0.801025 24.3145 0.801025 30.1569C0.801025 30.4539 1.04173 30.695 1.33912 30.695H21.4499C21.7469 30.695 21.988 30.4539 21.988 30.1569C21.988 29.0814 21.8258 28.0432 21.5267 27.0646H34.5787C34.8757 27.0646 35.1168 26.8235 35.1168 26.5265C35.1168 21.253 30.8275 16.9629 25.5545 16.9629ZM1.89228 29.6191C2.17245 24.6198 6.32726 20.6382 11.3943 20.6382C16.4614 20.6382 20.6166 24.6201 20.8967 29.6191H1.89228ZM21.1324 25.9887C20.4942 24.5032 19.5249 23.1938 18.3196 22.1495L18.5983 21.6634C20.1897 19.3937 22.7883 18.0391 25.5548 18.0391C30.0533 18.0391 33.7454 21.5583 34.0237 25.9887H21.1324Z" fill="black"/>
<path d="M25.3978 16.2723C28.466 16.2723 30.962 13.7762 30.962 10.7079C30.962 7.63965 28.466 5.14355 25.3978 5.14355C22.3295 5.14355 19.8335 7.63965 19.8335 10.7079C19.8335 13.7762 22.3295 16.2723 25.3978 16.2723ZM25.3978 6.21977C27.8723 6.21977 29.8858 8.233 29.8858 10.7079C29.8858 13.1829 27.8726 15.1961 25.3978 15.1961C22.9229 15.1961 20.9097 13.1829 20.9097 10.7079C20.9097 8.233 22.9229 6.21977 25.3978 6.21977Z" fill="black"/>
<path d="M25.3974 14.1435C26.3129 14.1435 27.1161 13.5584 27.3962 12.6874C27.4874 12.4043 27.3317 12.1012 27.049 12.0104C26.7656 11.9193 26.4628 12.075 26.3717 12.3577C26.235 12.7821 25.8433 13.0673 25.397 13.0673C24.9508 13.0673 24.559 12.7824 24.4227 12.358C24.332 12.0754 24.0321 11.9197 23.7458 12.0101C23.4631 12.1008 23.3071 12.404 23.3982 12.687C23.6784 13.5584 24.4816 14.1435 25.3974 14.1435Z" fill="black"/>
</svg>
