<svg width="36" height="36" viewBox="0 0 36 36" fill="none" xmlns="http://www.w3.org/2000/svg">
<path d="M32.9881 16.0825C32.988 15.4395 32.8442 14.8047 32.5673 14.2244C32.2905 13.6441 31.8874 13.133 31.3877 12.7285C31.4314 12.5282 31.4541 12.3239 31.4554 12.119C31.4513 11.3409 31.1692 10.59 30.66 10.0018C30.1509 9.41352 29.4482 9.02666 28.6788 8.91103C28.7726 8.43628 28.7432 7.9454 28.5933 7.48529C28.4455 7.05165 28.2018 6.65691 27.8804 6.33044C27.3757 5.73713 26.6932 5.32218 25.9342 5.14707C25.8678 5.11865 25.7962 5.10409 25.7239 5.1043H25.617C25.4024 5.0928 25.1871 5.10596 24.9754 5.1435C24.8249 4.35335 24.4024 3.64085 23.7814 3.12964C23.4081 2.82151 22.9734 2.59661 22.5062 2.46999C22.039 2.34336 21.5502 2.31793 21.0725 2.39539C20.2584 2.53774 19.5211 2.9638 18.9913 3.598C18.4615 4.23221 18.1734 5.03357 18.1782 5.85994V29.1566C18.1605 29.7367 18.2597 30.3145 18.4699 30.8555C18.6801 31.3965 18.997 31.8897 19.4017 32.3058C19.8064 32.7218 20.2907 33.0522 20.8258 33.2772C21.3608 33.5022 21.9356 33.6173 22.516 33.6156C23.2907 33.6179 24.052 33.4129 24.7207 33.0218C25.3895 32.6307 25.9414 32.0678 26.3192 31.3914C26.4835 31.4275 26.6503 31.4513 26.8182 31.4627C27.85 31.5301 28.8663 31.185 29.6437 30.5032C30.4211 29.8215 30.8958 28.8588 30.9635 27.8271C30.9917 27.3896 30.9435 26.9506 30.821 26.5296C31.3973 26.1229 31.882 25.5999 32.2437 24.9944C32.6055 24.3888 32.8363 23.7142 32.9212 23.0139C33.0062 22.3137 32.9434 21.6034 32.737 20.9289C32.5306 20.2544 32.1851 19.6307 31.7228 19.098C32.5253 18.2988 32.9801 17.2151 32.9881 16.0825ZM31.8974 22.3843C31.8985 22.9884 31.7621 23.5848 31.4984 24.1282C31.2347 24.6717 30.8506 25.148 30.3754 25.5209C30.0436 24.9418 29.5652 24.4601 28.9884 24.1241C28.4116 23.7881 27.7566 23.6098 27.0891 23.6069C26.9473 23.6069 26.8113 23.6632 26.711 23.7635C26.6108 23.8637 26.5544 23.9997 26.5544 24.1415C26.5544 24.2833 26.6108 24.4193 26.711 24.5196C26.8113 24.6198 26.9473 24.6762 27.0891 24.6762C27.6519 24.6935 28.1969 24.8771 28.6556 25.2038C29.1142 25.5305 29.4658 25.9856 29.6661 26.5118C29.8311 26.9048 29.9042 27.3303 29.88 27.7558C29.8251 28.5023 29.4789 29.1973 28.916 29.6907C28.3532 30.1842 27.6189 30.4366 26.8717 30.3934C26.6373 30.3752 26.4061 30.3273 26.1837 30.2508C26.0563 30.2089 25.9178 30.2164 25.7956 30.2719C25.6735 30.3274 25.5766 30.4267 25.5243 30.5502C25.2332 31.235 24.718 31.8006 24.0633 32.1542C23.4085 32.5078 22.6531 32.6284 21.9208 32.4964C21.157 32.3361 20.4727 31.9153 19.9851 31.306C19.4974 30.6967 19.2367 29.9369 19.2475 29.1566V5.85994C19.2389 5.28694 19.4336 4.72942 19.7971 4.28635C20.1605 3.84329 20.6692 3.54334 21.2329 3.43974C21.3591 3.42058 21.4866 3.41104 21.6142 3.41123C22.1565 3.40944 22.6823 3.59731 23.1006 3.94232C23.3496 4.14741 23.5542 4.4011 23.7019 4.6879C23.8496 4.97471 23.9373 5.28861 23.9596 5.61043C23.5004 5.90332 23.1221 6.30675 22.8593 6.78377C22.5965 7.26078 22.4577 7.79612 22.4554 8.34073C22.4554 8.48253 22.5118 8.61852 22.612 8.71879C22.7123 8.81906 22.8483 8.87539 22.9901 8.87539C23.1319 8.87539 23.2679 8.81906 23.3681 8.71879C23.4684 8.61852 23.5247 8.48253 23.5247 8.34073C23.5259 7.77959 23.7425 7.24034 24.1299 6.83438C24.5173 6.42841 25.0459 6.18676 25.6063 6.15935C26.0162 6.19855 26.4903 6.41598 27.0962 7.05044C27.3068 7.26045 27.4675 7.51502 27.5667 7.79539C27.6951 8.2037 27.6813 8.64347 27.5275 9.04291C27.5076 9.1014 27.4979 9.16291 27.499 9.22469C27.499 9.22469 27.499 9.25321 27.499 9.2639C27.4779 9.34602 27.4766 9.43199 27.4952 9.51471C27.5139 9.59743 27.5519 9.67453 27.6062 9.73965C27.6605 9.80476 27.7296 9.85602 27.8076 9.88919C27.8856 9.92237 27.9705 9.9365 28.055 9.93044H28.1905C28.4785 9.9295 28.7638 9.98541 29.0302 10.095C29.2965 10.2045 29.5386 10.3656 29.7426 10.5689C29.9466 10.7722 30.1084 11.0138 30.2189 11.2798C30.3293 11.5458 30.3861 11.8309 30.3861 12.119C30.3829 12.3434 30.3444 12.5659 30.2721 12.7784C30.2369 12.8885 30.2383 13.0071 30.2763 13.1164C30.3142 13.2256 30.3865 13.3196 30.4824 13.3843C30.899 13.6613 31.2456 14.0312 31.4948 14.465C31.744 14.8988 31.889 15.3846 31.9184 15.884C31.9477 16.3834 31.8607 16.8828 31.6641 17.3428C31.4674 17.8029 31.1666 18.2109 30.7853 18.5348C30.7576 18.5594 30.7325 18.5869 30.7105 18.6168C30.1611 19.0146 29.4997 19.2279 28.8214 19.2263C27.9595 19.2253 27.1332 18.8825 26.5238 18.2731C25.9144 17.6637 25.5716 16.8374 25.5707 15.9756C25.5707 15.8338 25.5143 15.6978 25.4141 15.5975C25.3138 15.4973 25.1778 15.4409 25.036 15.4409C24.8942 15.4409 24.7582 15.4973 24.658 15.5975C24.5577 15.6978 24.5014 15.8338 24.5014 15.9756C24.5051 17.1189 24.9612 18.2142 25.77 19.0223C26.5788 19.8305 27.6745 20.2856 28.8178 20.2885C29.5428 20.2913 30.2567 20.1097 30.8923 19.7609C31.5364 20.4833 31.8939 21.4164 31.8974 22.3843Z" fill="black"/>
<path d="M13.8618 2.38464C13.384 2.30719 12.8952 2.33262 12.4281 2.45925C11.9609 2.58587 11.5262 2.81077 11.1529 3.1189C10.5319 3.63011 10.1094 4.34261 9.95884 5.13276C9.76363 5.09797 9.56533 5.08364 9.36715 5.08999H9.30299C9.26156 5.08509 9.21968 5.08509 9.17824 5.08999C8.56161 5.15771 7.84874 5.46781 7.03963 6.29831C6.71812 6.6247 6.47444 7.01947 6.32676 7.45316C6.17666 7.91325 6.1472 8.40417 6.24121 8.8789C5.47184 8.99453 4.76914 9.38139 4.25997 9.96965C3.7508 10.5579 3.46869 11.3088 3.46458 12.0868C3.4647 12.2917 3.4862 12.4959 3.52874 12.6963C3.05758 13.0761 2.672 13.5512 2.39727 14.0904C2.12254 14.6297 1.96486 15.2209 1.93457 15.8253C1.90429 16.4297 2.00207 17.0337 2.22151 17.5977C2.44096 18.1617 2.77711 18.6729 3.20794 19.0979C2.74714 19.6317 2.40331 20.2562 2.19864 20.9311C1.99396 21.6059 1.93298 22.3161 2.01962 23.016C2.10626 23.7159 2.33861 24.3898 2.70168 24.9944C3.06474 25.5989 3.55047 26.1207 4.12755 26.526C4.00504 26.9469 3.9568 27.386 3.98497 27.8235C4.05271 28.8552 4.52747 29.8178 5.30484 30.4996C6.08221 31.1814 7.09853 31.5265 8.13032 31.4591C8.29819 31.4477 8.46498 31.4238 8.62933 31.3878C9.00714 32.0642 9.55906 32.6271 10.2278 33.0182C10.8966 33.4093 11.6578 33.6143 12.4325 33.612C13.0111 33.6113 13.5837 33.4945 14.1164 33.2687C14.6491 33.0428 15.1311 32.7124 15.5339 32.297C15.9366 31.8816 16.252 31.3896 16.4613 30.8502C16.6707 30.3108 16.7697 29.7349 16.7525 29.1565V5.85989C16.76 5.0322 16.4735 4.22871 15.9442 3.59235C15.4149 2.956 14.677 2.52805 13.8618 2.38464ZM15.6832 29.1565C15.6932 29.9393 15.43 30.7012 14.9388 31.3108C14.4476 31.9204 13.7592 32.3396 12.9921 32.4963C12.2598 32.6277 11.5047 32.5068 10.8501 32.1532C10.1955 31.7997 9.68023 31.2346 9.38854 30.5502C9.34885 30.4554 9.2827 30.3741 9.19799 30.3159C9.11329 30.2578 9.01362 30.2253 8.91092 30.2223C8.85529 30.2219 8.79995 30.2303 8.74696 30.2472C8.5246 30.3236 8.29345 30.3715 8.05903 30.3898C7.3104 30.4387 6.573 30.1883 6.00889 29.6937C5.44479 29.1991 5.10015 28.5008 5.05072 27.7522C5.027 27.3278 5.10013 26.9037 5.26458 26.5118C5.48396 25.9801 5.85305 25.5236 6.32699 25.1977C6.80092 24.8718 7.35931 24.6906 7.93428 24.6761C8.07608 24.6761 8.21207 24.6198 8.31234 24.5195C8.41261 24.4193 8.46894 24.2833 8.46894 24.1415C8.46894 23.9997 8.41261 23.8637 8.31234 23.7634C8.21207 23.6632 8.07608 23.6068 7.93428 23.6068C7.25855 23.6185 6.59667 23.8003 6.00981 24.1355C5.42295 24.4707 4.93005 24.9484 4.57666 25.5244C4.14533 25.1883 3.78818 24.7665 3.52761 24.2857C3.26704 23.8049 3.10869 23.2755 3.0625 22.7306C3.01631 22.1857 3.08328 21.6371 3.2592 21.1193C3.43512 20.6015 3.7162 20.1257 4.08478 19.7217C4.74116 20.0928 5.48331 20.2855 6.23733 20.2805C6.99134 20.2756 7.73091 20.0732 8.38239 19.6936C9.03388 19.314 9.57455 18.7703 9.95057 18.1167C10.3266 17.4631 10.5248 16.7224 10.5256 15.9684C10.5256 15.8266 10.4692 15.6906 10.369 15.5903C10.2687 15.4901 10.1327 15.4338 9.99092 15.4338C9.84912 15.4338 9.71313 15.4901 9.61286 15.5903C9.51259 15.6906 9.45626 15.8266 9.45626 15.9684C9.45689 16.5671 9.2922 17.1543 8.98034 17.6653C8.66848 18.1763 8.22157 18.5912 7.68888 18.8644C7.15618 19.1376 6.5584 19.2583 5.96144 19.2134C5.36449 19.1684 4.79154 18.9595 4.30577 18.6096C4.25908 18.5765 4.20731 18.5512 4.1525 18.5347C3.77259 18.2108 3.47299 17.8031 3.27721 17.3438C3.08143 16.8845 2.99482 16.3861 3.02418 15.8877C3.05354 15.3893 3.19807 14.9044 3.44642 14.4713C3.69476 14.0382 4.04016 13.6685 4.45547 13.3914C4.55134 13.3267 4.62365 13.2327 4.66157 13.1234C4.69949 13.0142 4.70096 12.8956 4.66577 12.7854C4.59021 12.5711 4.5493 12.3461 4.54458 12.1189C4.54551 11.8306 4.60339 11.5453 4.71491 11.2794C4.82642 11.0136 4.98937 10.7724 5.19439 10.5697C5.39941 10.367 5.64246 10.2068 5.90958 10.0983C6.1767 9.9898 6.46262 9.93516 6.75092 9.93751H6.85785C6.94238 9.94445 7.02734 9.9309 7.10552 9.89801C7.1837 9.86513 7.2528 9.81388 7.30695 9.7486C7.36096 9.68365 7.39881 9.60683 7.41739 9.52443C7.43598 9.44202 7.43478 9.35639 7.41389 9.27454C7.41389 9.27454 7.41389 9.24603 7.41389 9.23534C7.41496 9.17355 7.40531 9.11204 7.38537 9.05355C7.23134 8.65416 7.21751 8.2143 7.34616 7.80603C7.45104 7.51941 7.62057 7.26084 7.84161 7.05039C8.46181 6.40167 8.94656 6.18781 9.36359 6.1593C9.93471 6.17232 10.4781 6.40815 10.8777 6.8164C11.2773 7.22466 11.5014 7.77298 11.5022 8.34425C11.5022 8.48605 11.5585 8.62204 11.6588 8.7223C11.7591 8.82257 11.8951 8.8789 12.0369 8.8789C12.1787 8.8789 12.3146 8.82257 12.4149 8.7223C12.5152 8.62204 12.5715 8.48605 12.5715 8.34425C12.5711 7.78291 12.4254 7.23124 12.1487 6.74283C11.8721 6.25442 11.4737 5.84589 10.9925 5.55692C11.0209 5.24488 11.1108 4.94155 11.257 4.66443C11.4032 4.3873 11.6029 4.14187 11.8444 3.94227C12.1022 3.73071 12.4021 3.57647 12.7241 3.48982C13.0462 3.40316 13.3829 3.38608 13.7121 3.43969C14.2731 3.54627 14.7785 3.8475 15.1391 4.29027C15.4997 4.73305 15.6924 5.28892 15.6832 5.85989V29.1565Z" fill="black"/>
</svg>
