<svg width="36" height="36" viewBox="0 0 36 36" fill="none" xmlns="http://www.w3.org/2000/svg">
<path d="M34.0155 16.8842C33.7809 15.9695 33.2041 15.2014 32.3915 14.7211C31.5779 14.2404 30.6262 14.1059 29.7114 14.3412C28.0013 14.7814 26.909 16.4079 27.0787 18.1136L23.4974 19.0359C23.5351 18.768 23.5613 18.4964 23.5613 18.218C23.5613 14.9819 20.9286 12.3491 17.6924 12.3491C17.4549 12.3491 17.2221 12.3674 16.9918 12.3951L18.0303 9.2938C18.2305 9.3286 18.4321 9.34725 18.6334 9.34725C19.1729 9.34725 19.7089 9.22241 20.2057 8.97489C21.0509 8.55409 21.6815 7.82873 21.9818 6.93298C22.6003 5.08442 21.6001 3.07659 19.7523 2.45742C17.9044 1.83896 15.8959 2.83911 15.2763 4.68802C14.7156 6.36187 15.4866 8.16307 17.0108 8.94834L15.7951 12.5798C15.7843 12.6124 15.7771 12.6455 15.7728 12.6785C13.5663 13.4454 11.9591 15.4909 11.8386 17.926L8.76102 16.8932C9.05268 15.2039 8.08015 13.5032 6.40666 12.9418C5.51054 12.6411 4.55236 12.7075 3.70718 13.1279C2.86129 13.5484 2.23028 14.273 1.93038 15.1681C1.31013 17.0159 2.30884 19.0245 4.15668 19.6458C4.52833 19.7703 4.90607 19.8295 5.27808 19.8295C6.58208 19.8295 7.81038 19.1009 8.42202 17.9149L11.8946 19.0801C12.3136 21.9083 14.7501 24.0876 17.6931 24.0876C17.9288 24.0876 18.1602 24.0697 18.3884 24.0428L17.0833 26.6942C16.3698 26.4682 15.6067 26.4707 14.886 26.7161C13.9924 27.0199 13.2703 27.6542 12.8531 28.5015C12.4355 29.3488 12.3728 30.3077 12.677 31.2017C12.9808 32.096 13.6151 32.8181 14.4631 33.2353C14.956 33.4782 15.4869 33.6005 16.0207 33.6005C16.4042 33.6005 16.7895 33.5374 17.1636 33.41C18.0576 33.1055 18.7797 32.4716 19.1962 31.625C19.6142 30.7769 19.6766 29.8177 19.3724 28.9241C19.1266 28.203 18.6635 27.5971 18.0494 27.1695L19.7401 23.7343C19.744 23.726 19.7458 23.7174 19.7494 23.7088C21.349 23.1076 22.615 21.8305 23.2018 20.2241L27.347 19.1565C27.6405 19.8449 28.1391 20.4221 28.7956 20.8099C29.3473 21.1356 29.9625 21.3024 30.5867 21.3024C30.8823 21.3024 31.1801 21.2651 31.4742 21.1894C32.3897 20.9537 33.1578 20.3762 33.6378 19.5633C34.117 18.75 34.2516 17.7987 34.0155 16.8842ZM16.2966 5.03025C16.7278 3.74455 18.1233 3.04753 19.4104 3.47837C20.6957 3.90885 21.391 5.30576 20.9608 6.59182C20.7524 7.21494 20.3137 7.71932 19.7261 8.01205C19.1381 8.30442 18.4719 8.35105 17.8488 8.14227C16.5624 7.71107 15.8665 6.31524 16.2966 5.03025ZM18.2302 31.1493C17.9399 31.7383 17.4381 32.1796 16.816 32.3912C16.1951 32.6029 15.5271 32.5602 14.9384 32.27C14.3483 31.9798 13.9074 31.4775 13.6958 30.8555C13.4845 30.2338 13.5282 29.5666 13.8188 28.9768C14.1094 28.387 14.6113 27.9462 15.2326 27.7349C15.4919 27.6466 15.7588 27.6029 16.025 27.6029C16.397 27.6029 16.7669 27.6882 17.1102 27.8576C17.1106 27.8576 17.1106 27.8576 17.1106 27.8576C17.7003 28.1478 18.1416 28.6496 18.3528 29.271C18.5641 29.8919 18.5207 30.5592 18.2302 31.1493ZM4.49891 18.6255C3.21321 18.1936 2.51834 16.796 2.95026 15.5103C3.15904 14.8879 3.59813 14.3839 4.18609 14.0915C4.53191 13.9197 4.90428 13.8329 5.27916 13.8329C5.54247 13.8329 5.80721 13.8755 6.06406 13.9616C7.34869 14.3928 8.04356 15.7894 7.61272 17.0751C7.1808 18.3612 5.78533 19.0571 4.49891 18.6255ZM17.6928 23.0114C15.05 23.0114 12.9001 20.8612 12.9001 18.218C12.9001 15.5752 15.05 13.4253 17.6928 13.4253C20.3356 13.4253 22.4855 15.5752 22.4855 18.218C22.4855 20.8612 20.3356 23.0114 17.6928 23.0114ZM32.7104 19.0158C32.3765 19.5812 31.8419 19.983 31.2052 20.1469C30.5699 20.3105 29.9084 20.2172 29.3427 19.8833C28.7769 19.5493 28.3755 19.0148 28.2119 18.3784C27.874 17.0651 28.6675 15.722 29.9805 15.384C30.1853 15.3313 30.3927 15.3051 30.5989 15.3051C31.033 15.3051 31.461 15.4213 31.8448 15.6481C32.4098 15.982 32.8109 16.5162 32.9738 17.1519C32.9738 17.1519 32.9741 17.1522 32.9741 17.1526C33.1373 17.7886 33.0441 18.4505 32.7104 19.0158Z" fill="#231F20"/>
</svg>
