<svg width="56" height="56" viewBox="0 0 56 56" fill="none" xmlns="http://www.w3.org/2000/svg">
<path d="M49.0638 11.4385C48.8613 11.2795 48.5979 11.222 48.3473 11.2845L28.0317 16.2739L7.71211 11.2845C7.46212 11.2231 7.19873 11.2795 6.9956 11.4385C6.7936 11.597 6.67529 11.8398 6.67529 12.097V43.845C6.67529 44.2306 6.93868 44.566 7.31312 44.6581L27.8324 49.6921C27.8983 49.7083 27.9653 49.7161 28.0317 49.7161C28.0981 49.7161 28.165 49.7083 28.2309 49.6921L48.7463 44.6575C49.1207 44.5654 49.3841 44.2301 49.3841 43.8445V12.0965C49.3841 11.8398 49.2658 11.597 49.0638 11.4385ZM8.34938 13.1645L27.1946 17.7917V47.8121L8.34938 43.1882V13.1645ZM47.71 43.1882L28.8687 47.8121V17.7917L47.71 13.1645V43.1882Z" fill="#0D52FF"/>
<path d="M9.68713 8.41382L27.8326 12.8641C27.8984 12.8803 27.9643 12.8875 28.0285 12.8881C28.0296 12.8881 28.0301 12.8887 28.0313 12.8887H28.0318H28.0324C28.0335 12.8887 28.034 12.8881 28.0352 12.8881C28.0999 12.8875 28.1657 12.8803 28.231 12.8641L46.3715 8.41382C46.8207 8.30333 47.0952 7.85021 46.9853 7.40155C46.8754 6.95289 46.4217 6.67834 45.973 6.78772L28.0318 11.1889L10.0856 6.78772C9.63579 6.67834 9.18323 6.95234 9.0733 7.40155C8.96337 7.85076 9.23792 8.30333 9.68713 8.41382Z" fill="#0D52FF"/>
</svg>
