<svg width="36" height="36" viewBox="0 0 36 36" fill="none" xmlns="http://www.w3.org/2000/svg">
<path d="M16.2744 33.2818C15.9793 33.2818 15.7398 33.0426 15.7398 32.7471V30.0678L13.5694 29.9968C9.63582 29.9972 7.50362 26.7447 7.50362 23.6847L7.50933 22.2565C6.68774 21.9492 5.56319 21.2136 5.30085 20.9284C3.98738 19.5027 6.48101 16.5564 7.34964 15.6132C7.30295 15.1898 7.27942 14.7567 7.27942 14.3226C7.27942 7.87431 12.596 2.62793 19.1309 2.62793C25.6672 2.62793 30.9849 7.87395 30.9849 14.3226C30.9849 17.5911 29.5941 20.711 27.1603 22.9216L27.1532 32.6872C27.1528 32.9823 26.9137 33.2215 26.6186 33.2215H26.6182C26.3231 33.2215 26.0835 32.9816 26.0839 32.6865L26.091 22.681C26.091 22.5263 26.158 22.3795 26.2746 22.2782C28.5886 20.2629 29.9159 17.363 29.9159 14.3226C29.9159 8.46385 25.078 3.69724 19.1313 3.69724C13.1859 3.69724 8.34909 8.46385 8.34909 14.3226C8.34909 14.7966 8.3801 15.2686 8.44105 15.7259C8.46279 15.8866 8.40968 16.0488 8.29776 16.1661C6.87024 17.6606 5.61166 19.6866 6.08857 20.2041C6.49705 20.6486 7.79519 21.2399 8.11134 21.3479C8.3359 21.3754 8.52445 21.544 8.57043 21.7742C8.57792 21.8099 8.58077 21.8455 8.58077 21.8808L8.57364 23.6865C8.57364 26.2899 10.2959 28.9275 13.5873 28.9275L16.2923 29.0156C16.5806 29.0248 16.8094 29.2612 16.8094 29.5499V32.7467C16.8091 33.0426 16.5696 33.2818 16.2744 33.2818Z" fill="black"/>
<path d="M19.189 20.9552C18.8938 20.9552 18.6543 20.7161 18.6543 20.4206V18.0136C18.6543 16.7689 19.3109 15.7598 20.5028 15.1721C21.5201 14.6706 22.177 13.6319 22.177 12.5255C22.177 10.9437 20.8681 9.65622 19.2595 9.65622C17.6506 9.65622 16.3418 10.9433 16.3418 12.5255C16.3418 12.821 16.1022 13.0602 15.8071 13.0602C15.512 13.0602 15.2725 12.821 15.2725 12.5255C15.2725 10.3538 17.0611 8.58691 19.2595 8.58691C21.4577 8.58691 23.2463 10.3538 23.2463 12.5255C23.2463 14.0357 22.3548 15.4512 20.9754 16.1309C20.1449 16.5404 19.7236 17.1738 19.7236 18.0132V20.4202C19.7236 20.7161 19.4841 20.9552 19.189 20.9552Z" fill="black"/>
<path d="M19.2253 24.7859C18.9302 24.7859 18.6907 24.5468 18.6907 24.2513V22.6694C18.6907 22.3739 18.9302 22.1348 19.2253 22.1348C19.5205 22.1348 19.76 22.3739 19.76 22.6694V24.2513C19.76 24.5468 19.5205 24.7859 19.2253 24.7859Z" fill="black"/>
</svg>
