<svg width="36" height="36" viewBox="0 0 36 36" fill="none" xmlns="http://www.w3.org/2000/svg">
<path d="M30.9257 29.2086H17.2929C17.2857 29.2083 17.2793 29.2065 17.2721 29.2065C12.1878 29.2065 8.05078 25.0698 8.05078 19.9851C8.05078 17.5275 9.03805 15.1695 10.7739 13.4437C11.3585 13.9807 12.1081 14.2819 12.9078 14.2912C12.92 14.2912 12.9325 14.2912 12.945 14.2912C13.6132 14.2912 14.2496 14.0851 14.7863 13.7074L17.4644 16.4498C17.5694 16.5573 17.7088 16.6113 17.8478 16.6113C17.9828 16.6113 18.1179 16.5606 18.2222 16.4587L18.775 15.9192L20.2808 17.4653C20.3797 17.5671 20.5155 17.6254 20.6577 17.6272C20.6602 17.6272 20.6624 17.6272 20.6649 17.6272C20.805 17.6272 20.9393 17.5725 21.0394 17.4749L22.9628 15.5983C23.0643 15.499 23.1225 15.3632 23.1243 15.221C23.1261 15.0788 23.0714 14.9419 22.9717 14.8401L21.4639 13.2954L21.913 12.8573C22.0145 12.758 22.0727 12.6225 22.0745 12.4803C22.0763 12.3385 22.0216 12.2013 21.9219 12.0994L13.5153 3.48587C13.4988 3.46907 13.4803 3.45549 13.462 3.4412C13.4477 3.42191 13.4406 3.39939 13.4231 3.38153C12.2414 2.18379 10.2894 2.17629 9.06949 3.36652C7.86783 4.54532 7.81887 6.46556 8.94836 7.67258C8.97373 7.73333 9.00839 7.79086 9.05735 7.84088L10.3562 9.17083C9.95708 9.71002 9.73411 10.3564 9.72661 11.0389C9.72017 11.5917 9.85453 12.1237 10.1104 12.5968C8.11759 14.5306 6.97989 17.1998 6.97989 19.9851C6.97989 24.0232 9.31819 27.5235 12.7106 29.2086H5.6871C5.39124 29.2086 5.15112 29.4484 5.15112 29.7446V32.7182C5.15112 33.0144 5.39124 33.2542 5.6871 33.2542H30.9264C31.2223 33.2542 31.4624 33.0144 31.4624 32.7182V29.7446C31.4617 29.4487 31.2216 29.2086 30.9257 29.2086ZM21.8301 15.2052L20.6745 16.333L19.5422 15.1706L20.6963 14.044L21.8301 15.2052ZM9.8188 4.13261C10.5163 3.45263 11.5779 3.36724 12.3472 3.87713L9.5065 6.65279C9.01411 5.87419 9.12345 4.81474 9.8188 4.13261ZM13.1222 4.61821L20.7803 12.4642L17.8567 15.3174L10.1983 7.47534L13.1222 4.61821ZM14.0234 12.9266C13.6946 13.1206 13.3195 13.2243 12.9196 13.2193C12.3465 13.2128 11.8105 12.9834 11.4089 12.5725C11.008 12.1634 10.7911 11.6231 10.7975 11.0514C10.8021 10.6566 10.9154 10.2803 11.1184 9.95229L14.0234 12.9266ZM30.3897 32.1822H6.22237V30.2806H30.3897V32.1822Z" fill="black"/>
<path d="M22.0863 25.0615C22.192 25.174 22.3346 25.2312 22.4779 25.2312C22.609 25.2312 22.7405 25.1833 22.8438 25.0868L30.7942 17.6503C31.0104 17.448 31.0218 17.1086 30.8195 16.8924C30.6169 16.6762 30.2778 16.6652 30.062 16.867L22.1117 24.3036C21.8955 24.5062 21.8844 24.8453 22.0863 25.0615Z" fill="black"/>
</svg>
