<svg width="56" height="56" viewBox="0 0 56 56" fill="none" xmlns="http://www.w3.org/2000/svg">
<path d="M53.6049 8.8261C53.4827 8.51025 53.1825 8.29932 52.8443 8.2915L47.8835 8.17543L47.9957 3.21338C48.0035 2.87521 47.806 2.56494 47.4963 2.42878C47.186 2.29206 46.825 2.35512 46.58 2.58949L40.6522 8.25188C40.4915 8.40478 40.3983 8.61572 40.3927 8.83726L40.2655 14.1353L38.7973 15.6034C34.9012 11.9918 29.6916 9.77867 23.9735 9.77867C11.9354 9.77867 2.1416 19.575 2.1416 31.6157C2.1416 43.652 11.9354 53.4444 23.9735 53.4444C36.0117 53.4444 45.8055 43.652 45.8055 31.6157C45.8055 25.8953 43.5924 20.6844 39.9809 16.787L41.2716 15.4963L46.873 15.6269C46.8797 15.6269 46.8858 15.6269 46.8925 15.6269C47.1073 15.6269 47.3144 15.5443 47.47 15.3953L53.4023 9.73403C53.6479 9.50021 53.7277 9.14195 53.6049 8.8261ZM44.1309 31.6157C44.1309 42.729 35.0882 51.7703 23.973 51.7703C12.8578 51.7703 3.8151 42.729 3.8151 31.6157C3.8151 20.498 12.8578 11.4528 23.973 11.4528C29.2301 11.4528 34.0212 13.4779 37.6138 16.7865L34.5156 19.8847C31.7188 17.3691 28.0225 15.8345 23.9735 15.8345C15.2746 15.8345 8.19778 22.9137 8.19778 31.6152C8.19778 40.3144 15.2746 47.3914 23.9735 47.3914C32.6753 47.3914 39.7538 40.3144 39.7538 31.6152C39.7538 27.5638 38.2181 23.8652 35.6992 21.0677L38.7968 17.9701C42.1058 21.5638 44.1309 26.3573 44.1309 31.6157ZM29.013 31.6129C29.013 34.3914 26.7525 36.6514 23.9741 36.6514C21.1957 36.6514 18.9352 34.3908 18.9352 31.6129C18.9352 28.8345 21.1957 26.5739 23.9741 26.5739C25.0611 26.5739 26.0661 26.9232 26.8903 27.5108L23.3809 31.0203C23.0539 31.3473 23.0539 31.8769 23.3809 32.2039C23.5444 32.3674 23.7587 32.4489 23.973 32.4489C24.1873 32.4489 24.4015 32.3674 24.565 32.2039L28.0744 28.6944C28.6626 29.5192 29.013 30.5248 29.013 31.6129ZM28.0839 26.3166C26.9467 25.4321 25.5226 24.8998 23.9735 24.8998C20.2722 24.8998 17.2606 27.9115 17.2606 31.6129C17.2606 35.3144 20.2716 38.3255 23.9735 38.3255C27.6754 38.3255 30.6865 35.3144 30.6865 31.6129C30.6865 30.0627 30.153 28.6375 29.2675 27.5002L34.5128 22.2541C36.7293 24.7469 38.0791 28.0259 38.0791 31.6157C38.0791 39.3919 31.7512 45.7178 23.973 45.7178C16.197 45.7178 9.87128 39.3919 9.87128 31.6157C9.87128 23.8373 16.197 17.5091 23.973 17.5091C27.5605 17.5091 30.8372 18.8573 33.3293 21.0711L28.0839 26.3166ZM46.5649 13.9455L42.9071 13.8601L45.5594 11.2078C45.8864 10.8808 45.8864 10.3507 45.5594 10.0242C45.2324 9.6972 44.7028 9.6972 44.3758 10.0242L41.9808 12.4193L42.0573 9.22454L44.7737 6.63246C44.7743 6.63246 44.7743 6.6319 44.7743 6.6319L46.2759 5.19664L46.1905 8.97454C46.1799 9.43659 46.5465 9.8194 47.008 9.83001L50.7847 9.91818L46.5649 13.9455Z" fill="#0D52FF"/>
</svg>
