<svg width="36" height="36" viewBox="0 0 36 36" fill="none" xmlns="http://www.w3.org/2000/svg">
<path d="M18.1838 9.40625C13.4016 9.40625 9.51086 13.3075 9.51086 18.103C9.51086 20.8638 10.8143 23.441 13.0136 25.0793V30.9536C13.0136 31.2506 13.2538 31.4917 13.5505 31.4917H14.413C14.675 33.3453 16.2637 34.7766 18.1838 34.7766C20.1047 34.7766 21.6945 33.3453 21.9568 31.4917H22.717C23.0133 31.4917 23.2538 31.2506 23.2538 30.9536V25.1547C25.5143 23.5181 26.8593 20.9022 26.8593 18.103C26.8593 13.3075 22.9675 9.40625 18.1838 9.40625ZM18.1838 33.7008C16.8571 33.7008 15.748 32.7498 15.4982 31.492H20.872C20.6215 32.7494 19.5116 33.7008 18.1838 33.7008ZM22.1801 30.4155H14.0873V25.3401H22.1801V30.4155ZM19.7335 18.5766V24.2639H16.5314V18.5766H19.7335ZM22.6511 24.2639H20.8072V18.5766H22.5019C22.7982 18.5766 23.0387 18.3355 23.0387 18.0385C23.0387 17.7411 22.7982 17.5004 22.5019 17.5004H13.7652C13.4685 17.5004 13.2284 17.7411 13.2284 18.0385C13.2284 18.3355 13.4685 18.5766 13.7652 18.5766H15.4574V24.2639H13.7194C11.7527 22.8308 10.5842 20.5492 10.5842 18.103C10.5842 13.9012 13.9932 10.4825 18.1835 10.4825C22.3748 10.4825 25.7853 13.9008 25.7853 18.103C25.7856 20.5453 24.6171 22.8283 22.6511 24.2639Z" fill="black"/>
<path d="M18.1323 7.59847C18.4286 7.59847 18.6692 7.35776 18.6692 7.06037V1.6338C18.6692 1.33641 18.4286 1.0957 18.1323 1.0957C17.8356 1.0957 17.5955 1.33641 17.5955 1.6338V7.06037C17.5955 7.35776 17.8356 7.59847 18.1323 7.59847Z" fill="black"/>
<path d="M6.30907 17.5H0.895125C0.598427 17.5 0.358276 17.7407 0.358276 18.0381C0.358276 18.3351 0.598427 18.5762 0.895125 18.5762H6.30907C6.60577 18.5762 6.84592 18.3351 6.84592 18.0381C6.84592 17.7411 6.60577 17.5 6.30907 17.5Z" fill="black"/>
<path d="M34.8952 17.5H29.4837C29.1874 17.5 28.9469 17.7407 28.9469 18.0381C28.9469 18.3351 29.1874 18.5762 29.4837 18.5762H34.8952C35.1915 18.5762 35.432 18.3351 35.432 18.0381C35.432 17.7411 35.1915 17.5 34.8952 17.5Z" fill="black"/>
<path d="M9.58702 10.3503C9.68867 10.4396 9.81465 10.483 9.93991 10.483C10.0895 10.483 10.2384 10.4206 10.3443 10.2986C10.5394 10.0747 10.5161 9.73503 10.2928 9.53952L6.21525 5.97155C5.99228 5.77604 5.65264 5.79936 5.45794 6.02321C5.26288 6.24706 5.28615 6.58678 5.50948 6.78229L9.58702 10.3503Z" fill="black"/>
<path d="M25.4041 10.4825C25.5293 10.4825 25.655 10.4387 25.7566 10.3498L29.8363 6.78182C30.0596 6.58631 30.0825 6.24659 29.8878 6.02238C29.6935 5.79853 29.3539 5.77485 29.1305 5.97072L25.0508 9.53869C24.8275 9.7342 24.8046 10.0739 24.9993 10.2981C25.1052 10.4205 25.2541 10.4825 25.4041 10.4825Z" fill="black"/>
</svg>
