<svg width="27" height="32" viewBox="0 0 27 32" fill="none" xmlns="http://www.w3.org/2000/svg">
<path d="M12.2744 31.2818C11.9793 31.2818 11.7398 31.0426 11.7398 30.7471V28.0678L9.56946 27.9968C5.63583 27.9972 3.50364 24.7447 3.50364 21.6847L3.50934 20.2565C2.68776 19.9492 1.5632 19.2136 1.30087 18.9284C-0.0126001 17.5027 2.48102 14.5564 3.34966 13.6132C3.30296 13.1898 3.27944 12.7567 3.27944 12.3226C3.27944 5.87431 8.59603 0.62793 15.1309 0.62793C21.6672 0.62793 26.9849 5.87395 26.9849 12.3226C26.9849 15.5911 25.5941 18.711 23.1603 20.9216L23.1532 30.6872C23.1529 30.9823 22.9137 31.2215 22.6186 31.2215H22.6182C22.3231 31.2215 22.0836 30.9816 22.0839 30.6865L22.091 20.681C22.091 20.5263 22.158 20.3795 22.2746 20.2782C24.5886 18.2629 25.9159 15.363 25.9159 12.3226C25.9159 6.46385 21.0781 1.69724 15.1313 1.69724C9.18593 1.69724 4.3491 6.46385 4.3491 12.3226C4.3491 12.7966 4.38011 13.2686 4.44106 13.7259C4.46281 13.8866 4.4097 14.0488 4.29778 14.1661C2.87025 15.6606 1.61168 17.6866 2.08859 18.2041C2.49706 18.6486 3.7952 19.2399 4.11136 19.3479C4.33591 19.3754 4.52447 19.544 4.57045 19.7742C4.57793 19.8099 4.58079 19.8455 4.58079 19.8808L4.57366 21.6865C4.57366 24.2899 6.29595 26.9275 9.58728 26.9275L12.2923 27.0156C12.5806 27.0248 12.8095 27.2612 12.8095 27.5499V30.7467C12.8091 31.0426 12.5696 31.2818 12.2744 31.2818Z" fill="black"/>
<path d="M15.1891 18.9552C14.8939 18.9552 14.6544 18.7161 14.6544 18.4206V16.0136C14.6544 14.7689 15.311 13.7598 16.5029 13.1721C17.5201 12.6706 18.1771 11.6319 18.1771 10.5255C18.1771 8.94367 16.8682 7.65622 15.2596 7.65622C13.6507 7.65622 12.3418 8.94331 12.3418 10.5255C12.3418 10.821 12.1023 11.0602 11.8072 11.0602C11.5121 11.0602 11.2725 10.821 11.2725 10.5255C11.2725 8.35377 13.0611 6.58691 15.2596 6.58691C17.4578 6.58691 19.2464 8.35377 19.2464 10.5255C19.2464 12.0357 18.3549 13.4512 16.9755 14.1309C16.145 14.5404 15.7237 15.1738 15.7237 16.0132V18.4202C15.7237 18.7161 15.4842 18.9552 15.1891 18.9552Z" fill="black"/>
<path d="M15.2254 22.7859C14.9303 22.7859 14.6908 22.5468 14.6908 22.2513V20.6694C14.6908 20.3739 14.9303 20.1348 15.2254 20.1348C15.5206 20.1348 15.7601 20.3739 15.7601 20.6694V22.2513C15.7601 22.5468 15.5206 22.7859 15.2254 22.7859Z" fill="black"/>
</svg>
