<svg width="56" height="56" viewBox="0 0 56 56" fill="none" xmlns="http://www.w3.org/2000/svg">
<path d="M50.1243 5.80469H20.4877C17.7334 5.80469 15.4923 8.04469 15.4923 10.7979V16.2179C15.4923 16.6798 15.8662 17.0537 16.3281 17.0537C16.7901 17.0537 17.164 16.6798 17.164 16.2179V10.7979C17.164 8.96632 18.6551 7.47633 20.4877 7.47633H50.1243C51.9586 7.47633 53.4508 8.96632 53.4508 10.7979V31.1969C53.4508 33.0285 51.9586 34.5185 50.1243 34.5185H39.0196C39.0056 34.5185 38.9923 34.5218 38.9783 34.5224C38.9644 34.5218 38.9516 34.5185 38.9371 34.5185H31.671C31.2096 34.5185 30.8352 34.8929 30.8352 35.3543V43.9883H22.857C22.3951 43.9883 22.0212 44.3628 22.0212 44.8242C22.0212 45.2855 22.3951 45.66 22.857 45.66H31.6716H38.9376H47.7594C48.2208 45.66 48.5953 45.2855 48.5953 44.8242C48.5953 44.3628 48.2208 43.9883 47.7594 43.9883H39.7735V36.1901H50.1243C52.8802 36.1901 55.1225 33.9501 55.1225 31.1969V10.7979C55.1225 8.04469 52.8802 5.80469 50.1243 5.80469ZM32.5074 43.9883V36.1901H38.1018V43.9883H32.5074Z" fill="#0D52FF"/>
<path d="M17.988 41.8439C21.1006 41.8439 24.2004 40.5645 26.4231 38.0587C30.546 33.4088 30.1191 26.2725 25.4709 22.1503C20.8215 18.0291 13.6858 18.4565 9.56353 23.1025C5.62904 27.5407 5.84914 34.2379 9.91792 38.4237L8.54773 39.97L8.23123 39.6897C7.88631 39.3843 7.36086 39.4155 7.05495 39.7577L0.864863 46.6699C0.716644 46.8354 0.640306 47.0527 0.653122 47.2739C0.66538 47.4951 0.765122 47.7035 0.930614 47.8506L2.87696 49.5897C3.03633 49.7323 3.23525 49.8026 3.43362 49.8026C3.66319 49.8026 3.89165 49.7084 4.05658 49.5239L10.2528 42.6006C10.401 42.4351 10.4774 42.2172 10.4645 41.9949C10.4517 41.7731 10.3503 41.5653 10.1843 41.4176L9.80034 41.0777L11.1672 39.5353C13.1871 41.0777 15.5898 41.8439 17.988 41.8439ZM3.36787 47.7871L2.66801 47.1619L7.68683 41.5586C7.73085 41.6979 7.80886 41.8288 7.92643 41.9325C8.07131 42.0606 8.24906 42.1219 8.42848 42.1331L3.36787 47.7871ZM10.8145 24.2119C12.7079 22.0778 15.3469 20.989 17.9986 20.989C20.2637 20.989 22.5377 21.7842 24.362 23.4006C28.3205 26.9111 28.6843 32.9892 25.1728 36.9493C21.6623 40.9072 15.5837 41.271 11.6247 37.7595C7.66733 34.2496 7.30403 28.1721 10.8145 24.2119Z" fill="#0D52FF"/>
<path d="M35.3692 13.6032C35.9201 13.6032 36.3666 13.1567 36.3666 12.6058C36.3666 12.055 35.9201 11.6084 35.3692 11.6084C34.8184 11.6084 34.3718 12.055 34.3718 12.6058C34.3718 13.1567 34.8184 13.6032 35.3692 13.6032Z" fill="#0D52FF"/>
</svg>
