<svg width="30" height="30" viewBox="0 0 30 30" fill="none" xmlns="http://www.w3.org/2000/svg">
<path d="M28.9556 0.378906H9.97038C9.67299 0.378906 9.43227 0.619975 9.43227 0.917007V8.6757H0.91809C0.6207 8.6757 0.37999 8.91641 0.37999 9.2138V24.3093C0.37999 24.6067 0.6207 24.8474 0.91809 24.8474H5.41948L9.65505 29.3251C9.75872 29.4349 9.90114 29.4934 10.0461 29.4934C10.1128 29.4934 10.1802 29.4808 10.2448 29.4553C10.4496 29.3739 10.5838 29.1759 10.5842 28.9556L10.5863 24.8474H20.8285C21.1259 24.8474 21.3666 24.6067 21.3666 24.3093V16.5524H28.9556C29.253 16.5524 29.4937 16.3113 29.4937 16.0143V0.917007C29.4937 0.619975 29.253 0.378906 28.9556 0.378906ZM20.2904 23.7712H10.0486C9.75155 23.7712 9.51048 24.0119 9.51048 24.3093L9.50869 27.6046L6.04224 23.9398C5.94036 23.8326 5.79902 23.7716 5.65122 23.7716H1.45619V9.75226H9.43227V16.0147C9.43227 16.3117 9.67299 16.5528 9.97038 16.5528H13.7819V20.327C13.7819 20.5437 13.9118 20.7392 14.1116 20.8231C14.179 20.8515 14.2497 20.8651 14.3197 20.8651C14.4581 20.8651 14.5941 20.8117 14.6967 20.7109L18.9341 16.5528H20.2904V23.7712ZM28.4175 15.4762H18.7145C18.5735 15.4762 18.4383 15.5315 18.3375 15.6301L14.8578 19.0445V16.0143C14.8578 15.7169 14.6171 15.4762 14.3197 15.4762H10.5081V1.45511H28.4172V15.4759H28.4175V15.4762Z" fill="#231F20"/>
</svg>
