<svg width="56" height="56" viewBox="0 0 56 56" fill="none" xmlns="http://www.w3.org/2000/svg">
<path d="M35.56 24.9201V14.8849C35.8803 14.7 36.1306 14.4146 36.2721 14.0729C36.4136 13.7312 36.4385 13.3524 36.3427 12.9952C36.247 12.638 36.0361 12.3223 35.7427 12.0972C35.4493 11.872 35.0898 11.75 34.72 11.75C34.3502 11.75 33.9907 11.872 33.6973 12.0972C33.4039 12.3223 33.1929 12.638 33.0972 12.9952C33.0015 13.3524 33.0263 13.7312 33.1679 14.0729C33.3094 14.4146 33.5597 14.7 33.88 14.8849V25.7601C33.88 25.9829 33.9685 26.1966 34.126 26.3541C34.2835 26.5116 34.4972 26.6001 34.72 26.6001H36.68V35.0001H34.16C33.9372 35.0001 33.7235 35.0886 33.566 35.2461C33.4085 35.4037 33.32 35.6173 33.32 35.8401V45.0353C32.9997 45.2202 32.7494 45.5057 32.6079 45.8473C32.4663 46.189 32.4415 46.5678 32.5372 46.9251C32.6329 47.2823 32.8439 47.5979 33.1373 47.8231C33.4307 48.0482 33.7902 48.1702 34.16 48.1702C34.5298 48.1702 34.8893 48.0482 35.1827 47.8231C35.4761 47.5979 35.687 47.2823 35.7827 46.9251C35.8785 46.5678 35.8536 46.189 35.7121 45.8473C35.5706 45.5057 35.3203 45.2202 35 45.0353V36.6801H41.1152C41.3001 37.0004 41.5855 37.2507 41.9272 37.3922C42.2689 37.5338 42.6477 37.5586 43.0049 37.4629C43.3621 37.3672 43.6778 37.1562 43.9029 36.8628C44.1281 36.5694 44.2501 36.2099 44.2501 35.8401C44.2501 35.4703 44.1281 35.1108 43.9029 34.8174C43.6778 34.524 43.3621 34.3131 43.0049 34.2174C42.6477 34.1216 42.2689 34.1465 41.9272 34.288C41.5855 34.4295 41.3001 34.6798 41.1152 35.0001H38.36V26.6001H45.0352C45.2201 26.9204 45.5055 27.1707 45.8472 27.3122C46.1889 27.4538 46.5677 27.4786 46.9249 27.3829C47.2821 27.2872 47.5978 27.0762 47.8229 26.7828C48.0481 26.4894 48.1701 26.1299 48.1701 25.7601C48.1701 25.3903 48.0481 25.0308 47.8229 24.7374C47.5978 24.444 47.2821 24.2331 46.9249 24.1374C46.5677 24.0416 46.1889 24.0665 45.8472 24.208C45.5055 24.3495 45.2201 24.5998 45.0352 24.9201H35.56Z" fill="#0D52FF"/>
<path d="M53.2 17.4723H44.3576V6.16031C44.3576 5.93753 44.2691 5.72387 44.1115 5.56634C43.954 5.40881 43.7403 5.32031 43.5176 5.32031H12.4824C12.2596 5.32031 12.0459 5.40881 11.8884 5.56634C11.7309 5.72387 11.6424 5.93753 11.6424 6.16031V17.4723H2.79996C2.68965 17.4723 2.58042 17.494 2.47851 17.5363C2.37659 17.5785 2.28399 17.6403 2.20599 17.7183C2.12799 17.7963 2.06612 17.8889 2.0239 17.9909C1.98169 18.0928 1.95996 18.202 1.95996 18.3123V30.4923C1.95996 30.7151 2.04846 30.9288 2.20599 31.0863C2.36352 31.2438 2.57718 31.3323 2.79996 31.3323H6.28876V43.2211C6.28876 43.4439 6.37726 43.6576 6.53479 43.8151C6.69232 43.9726 6.90598 44.0611 7.12876 44.0611H15.12V51.5203C15.12 51.7431 15.2085 51.9568 15.366 52.1143C15.5235 52.2718 15.7372 52.3603 15.96 52.3603H40.04C40.2627 52.3603 40.4764 52.2718 40.6339 52.1143C40.7915 51.9568 40.88 51.7431 40.88 51.5203V44.0611H48.8712C49.0939 44.0611 49.3076 43.9726 49.4651 43.8151C49.6227 43.6576 49.7112 43.4439 49.7112 43.2211V31.3323H53.2C53.4227 31.3323 53.6364 31.2438 53.7939 31.0863C53.9515 30.9288 54.04 30.7151 54.04 30.4923V18.3123C54.04 18.202 54.0182 18.0928 53.976 17.9909C53.9338 17.8889 53.8719 17.7963 53.7939 17.7183C53.7159 17.6403 53.6233 17.5785 53.5214 17.5363C53.4195 17.494 53.3103 17.4723 53.2 17.4723ZM15.96 42.3811H7.96876V30.4923C7.96876 30.2695 7.88026 30.0559 7.72273 29.8983C7.5652 29.7408 7.35154 29.6523 7.12876 29.6523H3.63996V19.1523H12.4824C12.7051 19.1523 12.9188 19.0638 13.0763 18.9063C13.2339 18.7488 13.3224 18.5351 13.3224 18.3123V7.00031H27.16V50.6803H16.8V43.2211C16.8 42.9983 16.7115 42.7847 16.5539 42.6271C16.3964 42.4696 16.1827 42.3811 15.96 42.3811ZM52.36 29.6523H48.8712C48.6484 29.6523 48.4347 29.7408 48.2772 29.8983C48.1197 30.0559 48.0312 30.2695 48.0312 30.4923V42.3811H40.04C39.8172 42.3811 39.6035 42.4696 39.446 42.6271C39.2885 42.7847 39.2 42.9983 39.2 43.2211V50.6803H28.84V7.00031H42.6776V18.3123C42.6776 18.5351 42.7661 18.7488 42.9236 18.9063C43.0811 19.0638 43.2948 19.1523 43.5176 19.1523H52.36V29.6523Z" fill="#0D52FF"/>
<path d="M21 45.0353C20.6797 45.2202 20.4294 45.5057 20.2878 45.8473C20.1463 46.189 20.1215 46.5678 20.2172 46.9251C20.3129 47.2823 20.5238 47.5979 20.8172 47.8231C21.1106 48.0482 21.4701 48.1702 21.84 48.1702C22.2098 48.1702 22.5693 48.0482 22.8627 47.8231C23.1561 47.5979 23.367 47.2823 23.4627 46.9251C23.5584 46.5678 23.5336 46.189 23.3921 45.8473C23.2505 45.5057 23.0002 45.2202 22.68 45.0353V35.8401C22.68 35.6173 22.5915 35.4037 22.4339 35.2461C22.2764 35.0886 22.0627 35.0001 21.84 35.0001H19.32V26.6001H21.28C21.5027 26.6001 21.7164 26.5116 21.8739 26.3541C22.0315 26.1966 22.12 25.9829 22.12 25.7601V14.8849C22.4402 14.7 22.6905 14.4146 22.8321 14.0729C22.9736 13.7312 22.9984 13.3524 22.9027 12.9952C22.807 12.638 22.5961 12.3223 22.3027 12.0972C22.0093 11.872 21.6498 11.75 21.28 11.75C20.9101 11.75 20.5506 11.872 20.2572 12.0972C19.9638 12.3223 19.7529 12.638 19.6572 12.9952C19.5615 13.3524 19.5863 13.7312 19.7278 14.0729C19.8694 14.4146 20.1197 14.7 20.44 14.8849V24.9201H10.9648C10.7798 24.5998 10.4944 24.3495 10.1527 24.208C9.81107 24.0665 9.43224 24.0416 9.07502 24.1374C8.71779 24.2331 8.40214 24.444 8.177 24.7374C7.95186 25.0308 7.82983 25.3903 7.82983 25.7601C7.82983 26.1299 7.95186 26.4894 8.177 26.7828C8.40214 27.0762 8.71779 27.2872 9.07502 27.3829C9.43224 27.4786 9.81107 27.4538 10.1527 27.3122C10.4944 27.1707 10.7798 26.9204 10.9648 26.6001H17.64V35.0001H14.8848C14.6998 34.6798 14.4144 34.4295 14.0727 34.288C13.7311 34.1465 13.3522 34.1216 12.995 34.2174C12.6378 34.3131 12.3221 34.524 12.097 34.8174C11.8719 35.1108 11.7498 35.4703 11.7498 35.8401C11.7498 36.2099 11.8719 36.5694 12.097 36.8628C12.3221 37.1562 12.6378 37.3672 12.995 37.4629C13.3522 37.5586 13.7311 37.5338 14.0727 37.3922C14.4144 37.2507 14.6998 37.0004 14.8848 36.6801H21V45.0353Z" fill="#0D52FF"/>
</svg>
