<svg width="36" height="36" viewBox="0 0 36 36" fill="none" xmlns="http://www.w3.org/2000/svg">
<path d="M15.2999 28.4398H5.39995V12.9598H28.7999V14.9398C28.7999 15.0831 28.8568 15.2204 28.9581 15.3217C29.0594 15.423 29.1967 15.4798 29.3399 15.4798C29.4832 15.4798 29.6205 15.423 29.7218 15.3217C29.8231 15.2204 29.8799 15.0831 29.8799 14.9398V7.37984C29.8799 7.23663 29.8231 7.09928 29.7218 6.99801C29.6205 6.89674 29.4832 6.83984 29.3399 6.83984H4.85995C4.71673 6.83984 4.57938 6.89674 4.47811 6.99801C4.37684 7.09928 4.31995 7.23663 4.31995 7.37984V28.9798C4.31995 29.1231 4.37684 29.2604 4.47811 29.3617C4.57938 29.463 4.71673 29.5198 4.85995 29.5198H15.2999C15.4432 29.5198 15.5805 29.463 15.6818 29.3617C15.7831 29.2604 15.8399 29.1231 15.8399 28.9798C15.8399 28.8366 15.7831 28.6993 15.6818 28.598C15.5805 28.4967 15.4432 28.4398 15.2999 28.4398ZM28.7999 7.91984V11.8798H5.39995V7.91984H28.7999Z" fill="black"/>
<path d="M7.37997 10.4404H9.17997C9.32318 10.4404 9.46053 10.3835 9.5618 10.2822C9.66307 10.1809 9.71996 10.0436 9.71996 9.90035C9.71996 9.75713 9.66307 9.61978 9.5618 9.51851C9.46053 9.41724 9.32318 9.36035 9.17997 9.36035H7.37997C7.23675 9.36035 7.0994 9.41724 6.99813 9.51851C6.89686 9.61978 6.83997 9.75713 6.83997 9.90035C6.83997 10.0436 6.89686 10.1809 6.99813 10.2822C7.0994 10.3835 7.23675 10.4404 7.37997 10.4404Z" fill="black"/>
<path d="M11.34 10.4404H13.14C13.2833 10.4404 13.4206 10.3835 13.5219 10.2822C13.6232 10.1809 13.68 10.0436 13.68 9.90035C13.68 9.75713 13.6232 9.61978 13.5219 9.51851C13.4206 9.41724 13.2833 9.36035 13.14 9.36035H11.34C11.1968 9.36035 11.0595 9.41724 10.9582 9.51851C10.8569 9.61978 10.8 9.75713 10.8 9.90035C10.8 10.0436 10.8569 10.1809 10.9582 10.2822C11.0595 10.3835 11.1968 10.4404 11.34 10.4404Z" fill="black"/>
<path d="M24.12 20.5195C23.408 20.5195 22.712 20.7307 22.12 21.1262C21.528 21.5218 21.0665 22.0841 20.7941 22.7419C20.5216 23.3997 20.4503 24.1235 20.5892 24.8219C20.7281 25.5202 21.071 26.1616 21.5744 26.6651C22.0779 27.1686 22.7194 27.5115 23.4177 27.6504C24.116 27.7893 24.8399 27.718 25.4977 27.4455C26.1555 27.173 26.7177 26.7116 27.1133 26.1196C27.5089 25.5276 27.72 24.8315 27.72 24.1195C27.72 23.1648 27.3407 22.2491 26.6656 21.5739C25.9905 20.8988 25.0748 20.5195 24.12 20.5195ZM24.12 26.6395C23.6216 26.6395 23.1344 26.4917 22.72 26.2148C22.3056 25.9379 21.9826 25.5444 21.7918 25.0839C21.6011 24.6234 21.5512 24.1167 21.6484 23.6279C21.7457 23.1391 21.9857 22.69 22.3381 22.3376C22.6905 21.9852 23.1396 21.7452 23.6284 21.648C24.1172 21.5507 24.6239 21.6006 25.0844 21.7914C25.5449 21.9821 25.9384 22.3051 26.2153 22.7195C26.4922 23.1339 26.64 23.6211 26.64 24.1195C26.64 24.7879 26.3745 25.4288 25.9019 25.9014C25.4293 26.374 24.7884 26.6395 24.12 26.6395Z" fill="black"/>
<path d="M32.2992 22.1941L30.24 21.8809C30.1349 21.5581 30.0049 21.244 29.8512 20.9413L31.0896 19.2601C31.171 19.1546 31.2106 19.0227 31.2006 18.8898C31.1907 18.7568 31.1319 18.6323 31.0356 18.5401L29.322 16.8265C29.2298 16.7302 29.1053 16.6715 28.9723 16.6615C28.8394 16.6515 28.7075 16.6911 28.602 16.7725L26.928 18.0073C26.627 17.8615 26.3153 17.7387 25.9956 17.6401L25.686 15.5881C25.6686 15.4589 25.6051 15.3404 25.5072 15.2544C25.4093 15.1684 25.2835 15.1207 25.1532 15.1201H22.7268C22.5975 15.1204 22.4727 15.1671 22.3749 15.2517C22.2771 15.3362 22.213 15.4531 22.194 15.5809L21.8844 17.6401C21.5591 17.7462 21.2425 17.8774 20.9376 18.0325L19.2636 16.7977C19.1581 16.7163 19.0262 16.6767 18.8932 16.6867C18.7603 16.6967 18.6358 16.7554 18.5436 16.8517L16.83 18.5653C16.7337 18.6575 16.6749 18.782 16.665 18.915C16.655 19.0479 16.6945 19.1798 16.776 19.2853L18.0144 20.9665C17.8668 21.2615 17.7417 21.5672 17.64 21.8809L15.5736 22.1941C15.447 22.2146 15.3319 22.2795 15.2488 22.3771C15.1657 22.4747 15.1201 22.5987 15.12 22.7269V25.1533C15.1203 25.2826 15.167 25.4074 15.2516 25.5052C15.3361 25.603 15.4529 25.6672 15.5808 25.6861L17.658 25.9993C17.7627 26.3159 17.8915 26.624 18.0432 26.9209L16.794 28.6129C16.7125 28.7184 16.673 28.8504 16.683 28.9833C16.6929 29.1162 16.7517 29.2407 16.848 29.3329L18.5616 31.0465C18.6538 31.1428 18.7783 31.2016 18.9112 31.2115C19.0442 31.2215 19.1761 31.182 19.2816 31.1005L20.9808 29.8477C21.2757 29.9965 21.5813 30.1229 21.8952 30.2257L22.212 32.3137C22.2334 32.436 22.2963 32.5471 22.3901 32.6284C22.4839 32.7097 22.6028 32.7562 22.7268 32.7601H25.1532C25.2825 32.7598 25.4073 32.7131 25.5051 32.6286C25.6028 32.544 25.667 32.4272 25.686 32.2993L26.0028 30.2113C26.3166 30.1084 26.6223 29.9821 26.9172 29.8333L28.6164 31.0861C28.7219 31.1676 28.8538 31.2071 28.9867 31.1971C29.1197 31.1872 29.2442 31.1284 29.3364 31.0321L31.05 29.3185C31.1463 29.2263 31.205 29.1018 31.215 28.9689C31.225 28.836 31.1854 28.704 31.104 28.5985L29.8548 26.9065C30.0058 26.6142 30.1346 26.311 30.24 25.9993L32.3172 25.6861C32.4418 25.6633 32.5544 25.5975 32.6353 25.5001C32.7162 25.4027 32.7604 25.28 32.76 25.1533V22.7269C32.7597 22.5977 32.713 22.4728 32.6284 22.375C32.5439 22.2773 32.4271 22.2131 32.2992 22.1941ZM31.68 24.6889L29.7252 24.9841C29.6219 25 29.5253 25.0455 29.4474 25.1152C29.3694 25.1848 29.3134 25.2756 29.286 25.3765C29.1606 25.839 28.9754 26.2831 28.7352 26.6977C28.6826 26.7886 28.6576 26.8929 28.6634 26.9978C28.6692 27.1026 28.7054 27.2035 28.7676 27.2881L29.9448 28.8829L28.8864 29.9413L27.2844 28.7605C27.1998 28.6983 27.0989 28.6621 26.994 28.6563C26.8892 28.6506 26.7849 28.6755 26.694 28.7281C26.2814 28.9654 25.8397 29.1482 25.38 29.2717C25.2791 29.2991 25.1883 29.3552 25.1186 29.4331C25.049 29.5111 25.0035 29.6076 24.9876 29.7109L24.6888 31.6801H23.1912L22.8924 29.7109C22.8765 29.6076 22.831 29.5111 22.7613 29.4331C22.6917 29.3552 22.6009 29.2991 22.5 29.2717C22.0403 29.1481 21.5986 28.9654 21.186 28.7281C21.0951 28.6755 20.9908 28.6506 20.886 28.6563C20.7811 28.6621 20.6802 28.6983 20.5956 28.7605L18.9936 29.9413L17.9352 28.8829L19.116 27.2881C19.1782 27.2035 19.2144 27.1026 19.2202 26.9978C19.2259 26.8929 19.201 26.7886 19.1484 26.6977C18.9082 26.2831 18.723 25.839 18.5976 25.3765C18.5702 25.2756 18.5142 25.1848 18.4362 25.1152C18.3582 25.0455 18.2617 25 18.1584 24.9841L16.2 24.6889V23.1913L18.1476 22.8961C18.252 22.8806 18.3496 22.8349 18.4283 22.7645C18.507 22.6941 18.5634 22.6022 18.5904 22.5001C18.7144 22.0326 18.8996 21.5835 19.1412 21.1645C19.1938 21.0736 19.2187 20.9694 19.213 20.8645C19.2072 20.7596 19.171 20.6587 19.1088 20.5741L17.9424 18.9937L19.0008 17.9353L20.5776 19.0981C20.6622 19.1603 20.7631 19.1966 20.868 19.2023C20.9728 19.2081 21.0771 19.1831 21.168 19.1305C21.5889 18.886 22.0405 18.6983 22.5108 18.5725C22.6129 18.5455 22.7048 18.4892 22.7752 18.4105C22.8455 18.3318 22.8913 18.2342 22.9068 18.1297L23.1912 16.2001H24.6888L24.9804 18.1333C24.9959 18.2378 25.0417 18.3354 25.112 18.4141C25.1824 18.4928 25.2743 18.5491 25.3764 18.5761C25.8467 18.7019 26.2982 18.8896 26.7192 19.1341C26.81 19.1872 26.9143 19.2124 27.0193 19.2066C27.1242 19.2009 27.2252 19.1644 27.3096 19.1017L28.8864 17.9389L29.9448 18.9973L28.7784 20.5777C28.7162 20.6623 28.68 20.7632 28.6742 20.8681C28.6684 20.973 28.6934 21.0772 28.746 21.1681C28.9875 21.5871 29.1727 22.0362 29.2968 22.5037C29.3238 22.6058 29.3801 22.6977 29.4588 22.7681C29.5375 22.8385 29.6352 22.8842 29.7396 22.8997L31.6872 23.1949L31.68 24.6889Z" fill="black"/>
</svg>
