<svg width="56" height="56" viewBox="0 0 56 56" fill="none" xmlns="http://www.w3.org/2000/svg">
<path d="M51.9625 12.2672L43.3166 3.62124C42.9908 3.29552 42.4634 3.29552 42.1376 3.62124L26.755 19.0033L17.4687 9.86656C17.4615 9.85934 17.4521 9.85433 17.4443 9.84766C17.4137 9.81987 17.3809 9.79486 17.3459 9.77151C17.3292 9.7604 17.3137 9.74817 17.2964 9.73816C17.2553 9.71482 17.2114 9.69648 17.1658 9.6798C17.1541 9.67591 17.1441 9.66868 17.1325 9.66479L4.5551 5.73507C4.26051 5.64336 3.93646 5.72228 3.71691 5.94128C3.49736 6.16083 3.41787 6.48377 3.5107 6.77947L7.44098 19.3563C7.46488 19.4324 7.50157 19.5025 7.54548 19.568C7.55937 19.5892 7.57605 19.6064 7.59161 19.6258C7.61218 19.6514 7.62885 19.6792 7.6522 19.702L16.929 28.8293L3.62075 42.1381C3.29504 42.4638 3.29504 42.9913 3.62075 43.317L12.2673 51.9641C12.4235 52.1203 12.6358 52.2081 12.857 52.2081C13.0782 52.2081 13.29 52.1203 13.4467 51.9641L26.8923 38.5186L37.771 49.091C37.91 49.225 38.0845 49.29 38.2629 49.3095C39.5247 50.4795 41.1521 51.127 42.883 51.127C44.7017 51.127 46.412 50.4189 47.6976 49.1327C50.3172 46.5131 50.3467 42.2749 47.796 39.6124C47.7554 39.474 47.6832 39.3462 47.5776 39.2445L36.6671 28.7431L51.9631 13.4467C52.2882 13.1204 52.2882 12.5929 51.9625 12.2672ZM15.8529 11.0127L15.2298 13.1304L12.3251 13.9847C12.0533 14.0648 11.8404 14.2771 11.7603 14.5494L10.9066 17.4537L8.78832 18.0767L5.57728 7.80165L15.8529 11.0127ZM12.8564 50.1955L5.38885 42.7273L8.53041 39.5858L12.2639 43.3193C12.4268 43.4821 12.6402 43.5633 12.8537 43.5633C13.0671 43.5633 13.2805 43.4821 13.4434 43.3193C13.7691 42.9935 13.7691 42.4661 13.4434 42.1404L9.70988 38.4068L12.7692 35.3475L16.5027 39.0811C16.6656 39.2439 16.879 39.3251 17.0924 39.3251C17.3059 39.3251 17.5193 39.2439 17.6822 39.0811C18.0079 38.7553 18.0079 38.2279 17.6822 37.9021L13.9487 34.1686L18.1224 29.9949L25.6967 37.3563L12.8564 50.1955ZM46.517 47.9532C44.6511 49.8181 41.6991 49.9453 39.6825 48.3395L46.9039 41.1182C48.5097 43.1353 48.3824 46.0884 46.517 47.9532ZM38.343 47.3218L18.6432 28.1762L9.83217 19.5075L11.8137 18.9249C12.0855 18.8449 12.2984 18.6326 12.3784 18.3602L13.2327 15.456L16.1375 14.6017C16.4093 14.5216 16.6222 14.3093 16.7022 14.037L17.2925 12.031L34.8824 29.3373L45.8095 39.8559L38.343 47.3218ZM35.4715 27.5803L27.9434 20.1728L32.2227 15.8934L35.9562 19.627C36.1191 19.7898 36.3325 19.871 36.546 19.871C36.7594 19.871 36.9729 19.7898 37.1357 19.627C37.4614 19.3018 37.4614 18.7732 37.1357 18.448L33.4022 14.7145L36.8784 11.2384L40.6119 14.9719C40.7747 15.1347 40.9882 15.2159 41.2016 15.2159C41.4151 15.2159 41.6285 15.1347 41.7914 14.9719C42.1171 14.6467 42.1171 14.1181 41.7914 13.793L38.0578 10.0594L42.7279 5.38934L50.1944 12.8569L35.4715 27.5803Z" fill="#0D52FF"/>
</svg>
