<svg width="36" height="36" viewBox="0 0 36 36" fill="none" xmlns="http://www.w3.org/2000/svg">
<path d="M31.5409 7.3532C31.4107 7.25097 31.2414 7.21402 31.0803 7.25419L18.0202 10.4616L4.95766 7.25419C4.79695 7.21473 4.62763 7.25097 4.49705 7.3532C4.36719 7.45509 4.29114 7.61113 4.29114 7.77651V28.1859C4.29114 28.4338 4.46046 28.6494 4.70117 28.7086L17.8922 31.9448C17.9345 31.9552 17.9775 31.9602 18.0202 31.9602C18.0629 31.9602 18.106 31.9552 18.1483 31.9448L31.3368 28.7083C31.5775 28.6491 31.7468 28.4335 31.7468 28.1856V7.77615C31.7468 7.61113 31.6708 7.45509 31.5409 7.3532ZM5.36734 8.46277L17.4821 11.4374V30.7362L5.36734 27.7637V8.46277ZM30.6706 27.7637L18.5583 30.7362V11.4374L30.6706 8.46277V27.7637Z" fill="black"/>
<path d="M6.2272 5.40846L17.8921 8.26937C17.9345 8.27977 17.9768 8.28443 18.0181 8.28479C18.0188 8.28479 18.0191 8.28515 18.0198 8.28515H18.0202H18.0206C18.0213 8.28515 18.0216 8.28479 18.0224 8.28479C18.064 8.28443 18.1063 8.27977 18.1483 8.26937L29.81 5.40846C30.0988 5.33743 30.2753 5.04614 30.2046 4.75772C30.1339 4.4693 29.8423 4.2928 29.5539 4.36311L18.0202 7.19245L6.48333 4.36311C6.19419 4.2928 5.90326 4.46894 5.83259 4.75772C5.76192 5.0465 5.93842 5.33743 6.2272 5.40846Z" fill="black"/>
</svg>
