<svg width="36" height="36" viewBox="0 0 36 36" fill="none" xmlns="http://www.w3.org/2000/svg">
<path d="M17.616 18.0938C13.2513 18.0938 9.7002 21.6445 9.7002 26.0092C9.7002 26.3062 9.94091 26.5473 10.2383 26.5473H24.9934C25.2904 26.5473 25.5315 26.3062 25.5315 26.0092C25.5315 21.6445 21.9804 18.0938 17.616 18.0938ZM10.7976 25.4711C11.0731 21.9505 14.0262 19.17 17.616 19.17C21.2059 19.17 24.159 21.9505 24.4341 25.4711H10.7976Z" fill="black"/>
<path d="M17.4869 17.3829C20.0493 17.3829 22.1339 15.2983 22.1339 12.7359C22.1339 10.1735 20.049 8.08887 17.4869 8.08887C14.9244 8.08887 12.8398 10.1735 12.8398 12.7359C12.8398 15.2983 14.9244 17.3829 17.4869 17.3829ZM17.4869 9.16507C19.4556 9.16507 21.0577 10.7668 21.0577 12.7359C21.0577 14.7046 19.4556 16.3067 17.4869 16.3067C15.5178 16.3067 13.916 14.705 13.916 12.7359C13.916 10.7668 15.5178 9.16507 17.4869 9.16507Z" fill="black"/>
<path d="M7.09579 21.0625C7.97863 21.0625 8.84569 21.2979 9.60334 21.7434C9.85947 21.8948 10.1895 21.8083 10.3398 21.5526C10.4905 21.2964 10.4051 20.9664 10.1486 20.8157C9.22595 20.273 8.17019 19.9863 7.09579 19.9863C3.77499 19.9863 1.07336 22.6879 1.07336 26.0087C1.07336 26.3058 1.31407 26.5468 1.61146 26.5468H8.43171C8.7291 26.5468 8.96981 26.3058 8.96981 26.0087C8.96981 25.7117 8.7291 25.4706 8.43171 25.4706H2.17862C2.44767 22.9954 4.55021 21.0625 7.09579 21.0625Z" fill="black"/>
<path d="M7.00032 19.1271C8.98089 19.1271 10.5927 17.5157 10.5927 15.5347C10.5927 13.5538 8.98125 11.9424 7.00032 11.9424C5.01939 11.9424 3.40796 13.5538 3.40796 15.5347C3.40796 17.5153 5.01939 19.1271 7.00032 19.1271ZM7.00032 13.0186C8.38754 13.0186 9.51648 14.1472 9.51648 15.5347C9.51648 16.922 8.3879 18.0509 7.00032 18.0509C5.61274 18.0509 4.48416 16.9223 4.48416 15.5347C4.48416 14.1472 5.61274 13.0186 7.00032 13.0186Z" fill="black"/>
<path d="M28.1796 19.9863C27.1056 19.9863 26.0498 20.2733 25.1268 20.8157C24.8703 20.9664 24.7849 21.2961 24.9356 21.5522C25.0863 21.8091 25.417 21.8941 25.6721 21.7434C26.4301 21.2979 27.2971 21.0625 28.1796 21.0625C30.7252 21.0625 32.8277 22.9954 33.0968 25.4706H26.8448C26.5477 25.4706 26.3067 25.7117 26.3067 26.0087C26.3067 26.3058 26.5477 26.5468 26.8448 26.5468H33.6639C33.961 26.5468 34.2021 26.3058 34.2021 26.0087C34.2021 22.6879 31.5004 19.9863 28.1796 19.9863Z" fill="black"/>
<path d="M28.2755 19.1271C30.256 19.1271 31.8678 17.5157 31.8678 15.5347C31.8678 13.5538 30.2564 11.9424 28.2755 11.9424C26.2945 11.9424 24.6827 13.5538 24.6827 15.5347C24.6831 17.5153 26.2945 19.1271 28.2755 19.1271ZM28.2755 13.0186C29.6627 13.0186 30.7916 14.1472 30.7916 15.5347C30.7916 16.922 29.663 18.0509 28.2755 18.0509C26.8879 18.0509 25.7589 16.9223 25.7589 15.5347C25.7593 14.1472 26.8879 13.0186 28.2755 13.0186Z" fill="black"/>
</svg>
