<svg width="36" height="36" viewBox="0 0 36 36" fill="none" xmlns="http://www.w3.org/2000/svg">
<path d="M24.9096 16.4936C24.3916 15.9756 23.8259 15.5236 23.2243 15.1365L26.3345 2.68041C26.3746 2.51969 26.3388 2.34965 26.2369 2.21871C26.1347 2.08813 25.9782 2.01172 25.8125 2.01172H9.78517C9.61944 2.01172 9.46303 2.08813 9.36115 2.21871C9.25927 2.34929 9.22304 2.51933 9.26322 2.68041L12.3745 15.1447C9.59146 16.9352 7.74292 20.0566 7.74292 23.6038C7.74292 29.1495 12.255 33.661 17.8006 33.661C23.3441 33.661 27.8537 29.1495 27.8537 23.6038C27.8537 20.9175 26.8076 18.3924 24.9096 16.4936ZM10.4739 3.08829H25.1234L22.2525 14.5858C20.8854 13.9092 19.3715 13.5494 17.801 13.5494C17.801 13.5494 17.8006 13.5494 17.8003 13.5494C16.2014 13.5494 14.6894 13.9261 13.3456 14.5926L10.4739 3.08829ZM17.8003 32.5847C12.8476 32.5847 8.81875 28.5561 8.81875 23.6038C8.81875 18.6532 12.8476 14.6256 17.8003 14.6256C17.8006 14.6256 17.8006 14.6256 17.801 14.6256C19.3988 14.6256 20.932 15.0425 22.279 15.8206C22.3138 15.8471 22.3529 15.8683 22.3942 15.8859C23.0255 16.2633 23.6146 16.721 24.1476 17.2545C25.8434 18.9499 26.7768 21.2049 26.7768 23.6038C26.7775 28.5561 22.7504 32.5847 17.8003 32.5847Z" fill="black"/>
<path d="M22.9431 21.214L19.9383 20.7778L18.5952 18.0546C18.4435 17.749 18.1386 17.5596 17.7985 17.5596C17.7974 17.5596 17.7967 17.5596 17.7956 17.5596C17.4556 17.5606 17.1517 17.7515 17.0018 18.0575L15.659 20.7778L12.6565 21.2137C12.3182 21.2621 12.0427 21.4931 11.9372 21.8181C11.8317 22.1424 11.9186 22.4918 12.1621 22.7279L14.336 24.8488L13.8209 27.8532C13.7639 28.1857 13.8966 28.5172 14.1682 28.7177C14.3249 28.8336 14.5093 28.8928 14.6958 28.8928C14.8322 28.8928 14.9699 28.8609 15.098 28.7963L17.8616 27.3961L20.4832 28.7748C20.7846 28.9348 21.1437 28.91 21.4202 28.7098C21.6968 28.5097 21.8331 28.1764 21.7757 27.8392L21.262 24.848L23.4359 22.7272C23.6802 22.4893 23.766 22.1399 23.6602 21.816C23.554 21.4928 23.2788 21.2617 22.9431 21.214ZM20.3078 24.2758C20.1812 24.3996 20.1234 24.5775 20.1532 24.7519L20.6504 27.6473L18.1163 26.3145C17.9621 26.2328 17.7781 26.232 17.6227 26.3106L14.9444 27.6677L15.4445 24.7519C15.4743 24.5775 15.4165 24.3993 15.2899 24.2758L13.187 22.2242L16.0938 21.802C16.2692 21.7765 16.4206 21.6664 16.4992 21.5078L17.7996 18.8733L19.0989 21.5075C19.1775 21.666 19.3292 21.7762 19.5043 21.8016L22.4114 22.2239L20.3078 24.2758Z" fill="black"/>
</svg>
