<svg width="42" height="36" viewBox="0 0 42 36" fill="none" xmlns="http://www.w3.org/2000/svg">
<path d="M18.2514 7.12084C15.7165 7.12084 13.8153 7.99995 12.5478 9.75818C11.3649 11.5164 10.7734 14.3296 10.7734 18.1977H18.6316V35.9998H0V21.89C0 14.3296 1.3942 8.79115 4.18261 5.27469C7.05552 1.75823 11.7451 0 18.2514 0V7.12084Z" fill="#0D52FF"/>
<path opacity="0.2" d="M41.6196 7.12084C39.0846 7.12084 37.1835 7.99995 35.916 9.75818C34.733 11.5164 34.1416 14.3296 34.1416 18.1977H41.9998V35.9998H23.3682V21.89C23.3682 14.3296 24.7624 8.79115 27.5508 5.27469C30.4237 1.75823 35.1133 0 41.6196 0V7.12084Z" fill="#0D52FF"/>
</svg>
