<svg width="36" height="36" viewBox="0 0 36 36" fill="none" xmlns="http://www.w3.org/2000/svg">
<path d="M34.2001 16.9202C34.0192 16.7113 33.7989 16.5401 33.5518 16.4166C33.3047 16.293 33.0357 16.2195 32.7601 16.2002C32.4845 16.1812 32.208 16.218 31.9469 16.3083C31.6859 16.3986 31.4458 16.5406 31.2409 16.7258L26.2549 21.2042C26.2419 21.1046 26.2226 21.006 26.1973 20.909C26.1135 20.597 25.9633 20.3069 25.757 20.0583C25.5507 19.8098 25.2932 19.6088 25.0021 19.469C24.0769 19.0802 22.7917 19.2602 21.5497 19.4402C20.8232 19.5824 20.0813 19.6284 19.3429 19.577C19.0142 19.4945 18.6964 19.3737 18.3961 19.217C17.4529 18.7958 16.1605 18.2198 13.7557 18.749C12.5141 19.0696 11.3736 19.6987 10.4401 20.5778V19.2602C10.4401 19.1169 10.3832 18.9796 10.2819 18.8783C10.1806 18.777 10.0433 18.7202 9.90005 18.7202H5.22005C5.07684 18.7202 4.93949 18.777 4.83822 18.8783C4.73695 18.9796 4.68005 19.1169 4.68005 19.2602V29.7002C4.68005 29.8434 4.73695 29.9807 4.83822 30.082C4.93949 30.1833 5.07684 30.2402 5.22005 30.2402H9.90005C10.0433 30.2402 10.1806 30.1833 10.2819 30.082C10.3832 29.9807 10.4401 29.8434 10.4401 29.7002V28.9514C11.1601 29.1206 14.4289 29.8802 16.8445 29.8802C19.3645 29.8802 22.4461 29.3042 24.3433 28.4798C27.8389 26.9642 33.5953 20.423 34.0633 19.8938C34.4687 19.5135 34.7099 18.99 34.7354 18.4347C34.761 17.8794 34.5689 17.3361 34.2001 16.9202ZM9.36005 29.1602H5.76005V19.8002H9.36005V29.1602ZM33.3145 19.1126L33.2641 19.163C33.2029 19.2314 27.2557 26.0426 23.9041 27.4934C22.1401 28.2602 19.2313 28.8002 16.8445 28.8002C14.3245 28.8002 10.6057 27.8786 10.5697 27.8714C10.5266 27.8661 10.4831 27.8661 10.4401 27.8714V22.1114C10.8325 21.6614 12.2185 20.1998 13.9897 19.811C16.0489 19.361 17.0641 19.811 17.9497 20.2106C18.3317 20.3988 18.7356 20.539 19.1521 20.6282C20.0023 20.7083 20.8596 20.6647 21.6973 20.4986C22.7449 20.3546 23.9329 20.189 24.5773 20.459C24.7158 20.5386 24.8369 20.6453 24.9334 20.7727C25.0299 20.9001 25.0998 21.0456 25.1389 21.2006C25.1911 21.4131 25.192 21.635 25.1413 21.8479C25.0905 22.0607 24.9897 22.2585 24.8473 22.4246C24.0265 23.5262 19.0333 25.175 16.9849 25.013C16.8416 25.002 16.6999 25.0483 16.5909 25.1418C16.4819 25.2353 16.4144 25.3683 16.4035 25.5116C16.3925 25.6548 16.4388 25.7965 16.5323 25.9055C16.6258 26.0146 16.7588 26.082 16.9021 26.093C17.0137 26.093 17.1361 26.093 17.2621 26.093C19.4977 26.093 23.7673 24.7754 25.3297 23.4578L25.3693 23.4362L31.9357 17.5322C32.133 17.3564 32.3918 17.2658 32.6557 17.2802C32.7937 17.2885 32.9287 17.3247 33.0524 17.3866C33.1762 17.4485 33.2861 17.5347 33.3757 17.6402C33.5605 17.8446 33.6577 18.1135 33.6463 18.3889C33.6348 18.6643 33.5157 18.9242 33.3145 19.1126Z" fill="black"/>
<path d="M15.8807 9.76137C18.0206 9.76137 19.7614 8.02063 19.7614 5.88069C19.7614 3.74074 18.0203 2 15.8807 2C13.7411 2 12 3.74074 12 5.88069C12 8.02063 13.7407 9.76137 15.8807 9.76137ZM15.8807 3.06722C17.4323 3.06722 18.6942 4.32944 18.6942 5.88069C18.6942 7.43193 17.4319 8.69416 15.8807 8.69416C14.3294 8.69416 13.0672 7.43193 13.0672 5.88069C13.0672 4.32944 14.3294 3.06722 15.8807 3.06722Z" fill="black"/>
<path d="M25.4764 8.86177C27.1206 8.86177 28.4581 7.52426 28.4581 5.88011C28.4581 4.23595 27.1202 2.89844 25.4764 2.89844C23.8326 2.89844 22.4948 4.23595 22.4948 5.88011C22.4948 7.52426 23.8323 8.86177 25.4764 8.86177ZM25.4764 3.96565C26.5319 3.96565 27.3909 4.82427 27.3909 5.88011C27.3909 6.93594 26.5319 7.79456 25.4764 7.79456C24.421 7.79456 23.562 6.93594 23.562 5.88011C23.562 4.82427 24.421 3.96565 25.4764 3.96565Z" fill="black"/>
<path d="M16.6555 14.185C16.6555 16.3246 18.3963 18.0653 20.5355 18.0653C22.675 18.0653 24.4158 16.3246 24.4158 14.185C24.4158 12.0454 22.675 10.3047 20.5355 10.3047C18.3963 10.3047 16.6555 12.0454 16.6555 14.185ZM20.5358 11.3719C22.0871 11.3719 23.3489 12.6338 23.3489 14.185C23.3489 15.7363 22.0867 16.9981 20.5358 16.9981C18.985 16.9981 17.7231 15.7363 17.7231 14.185C17.7231 12.6338 18.9846 11.3719 20.5358 11.3719Z" fill="black"/>
</svg>
