<svg width="56" height="56" viewBox="0 0 56 56" fill="none" xmlns="http://www.w3.org/2000/svg">
<path d="M11.3785 10.7649L17.8486 13.6095C16.5657 15.5059 15.8964 17.6812 15.8964 19.9681C15.8964 26.2151 20.9721 31.3465 27.2749 31.3465C33.5777 31.3465 38.6534 26.2709 38.6534 19.9681C38.6534 17.737 37.984 15.5059 36.7569 13.6653L42.4462 10.988V21.8087L40.7171 25.49C40.6055 25.7689 40.6055 26.0477 40.7729 26.2709C40.9402 26.494 41.2191 26.6613 41.498 26.6613H44.7888C45.0677 26.6613 45.3466 26.5497 45.4581 26.2709C45.6255 26.0477 45.6255 25.7689 45.5139 25.49L44.0079 21.8087V10.2629C44.0079 9.81667 43.9522 9.48201 43.1713 9.14735C43.004 9.09157 27.6653 2.28679 27.6653 2.28679C27.4422 2.17524 27.2191 2.17524 26.996 2.28679L11.3785 9.20312C11.0996 9.31468 10.8765 9.64934 10.8765 9.984C10.8765 10.3187 11.0438 10.5975 11.3785 10.7649ZM36.9243 19.9681C36.9243 25.3226 32.5737 29.6732 27.2191 29.6732C21.8645 29.6732 17.5139 25.3226 17.5139 19.9681C17.5139 17.9043 18.1832 15.9521 19.3546 14.2788L26.9402 17.6812C27.0518 17.737 27.1633 17.737 27.2749 17.737C27.3864 17.737 27.498 17.737 27.6095 17.6812L35.0836 14.3346C36.3107 16.0079 36.9243 17.9601 36.9243 19.9681ZM42.7808 24.988L43.1713 24.1513L43.5059 24.988H42.7808ZM27.3306 3.9601L40.8844 9.984L27.3306 16.0079L13.7769 9.984L27.3306 3.9601Z" fill="#0D52FF"/>
<path d="M27.5537 33.3545C16.6772 33.3545 7.80872 42.223 7.80872 53.0995C7.80872 53.5457 8.19915 53.9362 8.64537 53.9362H46.4621C46.9083 53.9362 47.2988 53.5457 47.2988 53.0995C47.2988 42.223 38.4302 33.3545 27.5537 33.3545ZM9.5378 52.2629C9.98401 42.6692 17.9043 35.0278 27.6095 35.0278C37.3147 35.0278 45.1792 42.725 45.6255 52.2629H9.5378Z" fill="#0D52FF"/>
</svg>
