<svg width="36" height="36" viewBox="0 0 36 36" fill="none" xmlns="http://www.w3.org/2000/svg">
<path d="M33.8892 17.2994L32.7871 14.8146C32.7286 14.6823 32.6187 14.5794 32.4829 14.5289C32.3472 14.4785 32.1964 14.4846 32.0649 14.5461L29.1397 15.9167C28.8704 16.0429 28.7551 16.3621 28.8819 16.6302C29.0083 16.8979 29.3297 17.0131 29.5986 16.8869L31.1471 16.1612L27.0817 25.679L24.7727 21.5319C24.6739 21.3546 24.4811 21.2509 24.28 21.2559C24.0767 21.2642 23.895 21.3857 23.811 21.5702L20.3424 29.178L18.2593 25.7884C18.1558 25.6204 17.9644 25.5213 17.772 25.5328C17.5748 25.5432 17.3988 25.6597 17.3137 25.8374L13.1736 34.4725C13.0454 34.7399 13.1593 35.0599 13.4279 35.1875C13.5026 35.2232 13.5816 35.2401 13.6595 35.2401C13.8606 35.2401 14.0534 35.1274 14.1457 34.9348L17.8585 27.1915L19.9539 30.6007C20.058 30.7702 20.2508 30.8695 20.4465 30.856C20.6455 30.8438 20.8214 30.723 20.9037 30.5425L24.3496 22.9847L26.6745 27.1604C26.7739 27.3395 26.9675 27.4456 27.1736 27.436C27.379 27.4253 27.5607 27.2991 27.6412 27.1103L32.2632 16.2892L32.9038 17.733C32.9929 17.9336 33.19 18.0529 33.3969 18.0529C33.4694 18.0529 33.5434 18.0379 33.6141 18.0072C33.8863 17.8867 34.0095 17.5704 33.8892 17.2994Z" fill="black"/>
<path d="M12.9126 14.4284C16.5733 14.4284 19.5517 11.4642 19.5517 7.82048C19.5517 4.17708 16.5733 1.21289 12.9126 1.21289C9.25332 1.21289 6.27637 4.17708 6.27637 7.82048C6.27673 11.4642 9.25368 14.4284 12.9126 14.4284ZM12.9126 2.28496C15.9793 2.28496 18.4743 4.76799 18.4743 7.82012C18.4743 10.8726 15.9793 13.3556 12.9126 13.3556C9.84728 13.3556 7.35367 10.8723 7.35367 7.82012C7.35403 4.76835 9.84764 2.28496 12.9126 2.28496Z" fill="black"/>
<path d="M13.2868 28.0231C13.2868 27.7268 13.0458 27.4869 12.7481 27.4869H2.54605C2.82794 21.7322 7.61944 17.1365 13.4689 17.1365C16.1776 17.1365 18.7768 18.1296 20.7874 19.9334C21.0082 20.1318 21.349 20.1139 21.5479 19.8941C21.7472 19.6743 21.7293 19.3354 21.5084 19.137C19.2996 17.1555 16.4444 16.0645 13.4689 16.0645C6.84486 16.0645 1.45581 21.4291 1.45581 28.0235C1.45581 28.3198 1.69677 28.5597 1.99446 28.5597H12.7485C13.0458 28.5593 13.2868 28.3195 13.2868 28.0231Z" fill="black"/>
</svg>
