<svg id="SvgjsSvg1001" width="288" height="288" xmlns="http://www.w3.org/2000/svg" version="1.1" xmlns:xlink="http://www.w3.org/1999/xlink" xmlns:svgjs="http://svgjs.com/svgjs"><defs id="SvgjsDefs1002"></defs><g id="SvgjsG1008" transform="matrix(0.9167,0,0,0.9167,11.995196822357173,11.875105120468135)"><svg xmlns="http://www.w3.org/2000/svg" width="288" height="288" fill="none" viewBox="0 0 36 36"><path fill="#000000" d="M30.78 5.75977H5.21999C5.07678 5.75977 4.93942 5.81666 4.83815 5.91793C4.73689 6.0192 4.67999 6.15655 4.67999 6.29977V29.3398C4.67999 29.483 4.73689 29.6203 4.83815 29.7216C4.93942 29.8229 5.07678 29.8798 5.21999 29.8798H30.78C30.9232 29.8798 31.0606 29.8229 31.1618 29.7216C31.2631 29.6203 31.32 29.483 31.32 29.3398V6.29977C31.32 6.15655 31.2631 6.0192 31.1618 5.91793C31.0606 5.81666 30.9232 5.75977 30.78 5.75977ZM30.24 6.83977V12.2398H5.75999V6.83977H30.24ZM5.75999 28.7998V13.3198H30.24V28.7998H5.75999Z" class="color0D52FF svgShape"></path><path fill="#000000" d="M7.74 10.08H9.9C10.0432 10.08 10.1806 10.0231 10.2818 9.92184 10.3831 9.82057 10.44 9.68322 10.44 9.54 10.44 9.39678 10.3831 9.25943 10.2818 9.15816 10.1806 9.05689 10.0432 9 9.9 9H7.74C7.59678 9 7.45943 9.05689 7.35816 9.15816 7.25689 9.25943 7.2 9.39678 7.2 9.54 7.2 9.68322 7.25689 9.82057 7.35816 9.92184 7.45943 10.0231 7.59678 10.08 7.74 10.08zM12.6 10.08H14.76C14.9032 10.08 15.0406 10.0231 15.1418 9.92184 15.2431 9.82057 15.3 9.68322 15.3 9.54 15.3 9.39678 15.2431 9.25943 15.1418 9.15816 15.0406 9.05689 14.9032 9 14.76 9H12.6C12.4568 9 12.3194 9.05689 12.2182 9.15816 12.1169 9.25943 12.06 9.39678 12.06 9.54 12.06 9.68322 12.1169 9.82057 12.2182 9.92184 12.3194 10.0231 12.4568 10.08 12.6 10.08zM22.4532 20.3401L15.9732 15.7573C15.8922 15.6997 15.7969 15.6655 15.6978 15.6585 15.5986 15.6516 15.4995 15.6721 15.4112 15.7179 15.323 15.7637 15.2491 15.833 15.1977 15.918 15.1464 16.0031 15.1195 16.1007 15.12 16.2001V24.8401C15.1199 24.9368 15.1458 25.0316 15.1948 25.1148 15.2439 25.198 15.3144 25.2666 15.399 25.3133 15.4835 25.36 15.5791 25.3831 15.6757 25.3803 15.7722 25.3775 15.8663 25.3489 15.948 25.2973L22.428 21.2401C22.5037 21.193 22.5665 21.1278 22.6109 21.0505 22.6552 20.9732 22.6798 20.886 22.6823 20.7969 22.6848 20.7078 22.6651 20.6194 22.6252 20.5397 22.5852 20.46 22.5261 20.3914 22.4532 20.3401zM16.2 23.8645V17.2441L21.1644 20.7541 16.2 23.8645z" class="color0D52FF svgShape"></path></svg></g></svg>