<svg width="36" height="36" viewBox="0 0 36 36" fill="none" xmlns="http://www.w3.org/2000/svg">
<path d="M18.4938 18.9941C10.7713 18.9941 4.48877 25.3574 4.48877 33.1787C4.48877 33.4764 4.72973 33.7173 5.02742 33.7173H31.9601C32.2578 33.7173 32.4987 33.4764 32.4987 33.1787C32.4987 25.3574 26.2163 18.9941 18.4938 18.9941ZM19.2493 24.7398L20.2799 32.64H16.3919L17.5184 24.7398H19.2493ZM20.1097 20.1774V23.6625H16.8778V20.1774C17.4075 20.1099 17.9461 20.0714 18.4938 20.0714C19.0414 20.0714 19.58 20.1099 20.1097 20.1774ZM15.8005 20.3605V24.2011C15.8005 24.4988 16.0414 24.7398 16.3391 24.7398H16.4304L15.3039 32.64H5.57685C5.81924 26.5888 10.1285 21.5843 15.8005 20.3605ZM21.363 32.64C21.3623 32.6296 21.3633 32.6196 21.3619 32.6091L20.3356 24.7398H20.6484C20.9461 24.7398 21.187 24.4988 21.187 24.2011V20.3605C26.859 21.5843 31.1683 26.5888 31.4107 32.64H21.363Z" fill="black"/>
<path d="M18.1328 17.0573C22.4898 17.0573 26.0349 13.513 26.0349 9.15673C26.0349 4.80082 22.4898 1.25684 18.1328 1.25684C13.7776 1.25684 10.2344 4.80082 10.2344 9.15673C10.2344 13.5134 13.7776 17.0573 18.1328 17.0573ZM18.1328 2.33414C21.8959 2.33414 24.9576 5.39477 24.9576 9.15673C24.9576 12.919 21.8962 15.98 18.1328 15.98C14.3716 15.98 11.3117 12.919 11.3117 9.15673C11.3117 5.39477 14.3716 2.33414 18.1328 2.33414Z" fill="black"/>
</svg>
